<svg width="140" height="69" viewBox="0 0 140 69" fill="none" xmlns="http://www.w3.org/2000/svg">
<g clip-path="url(#clip0_323_138)">
<path d="M10.254 59.579H18.9453C22.4658 59.579 24.2243 58.0585 24.2243 55.0599C24.2243 52.1368 22.4647 50.6943 18.9453 50.732H10.254V59.579ZM18.8788 33.3783H10.254V41.1761H18.8788C19.4801 41.1761 20.2773 41.3285 21.7631 40.0383C22.4623 39.3933 22.8504 38.4823 22.8504 37.2665C22.8504 34.874 21.2038 33.5839 19.8542 33.4704L18.8788 33.3783ZM0 68.9967V23.9819H18.9453C19.3578 23.9819 19.8438 24.0172 20.48 24.0562C21.6156 24.1997 22.7412 24.4152 23.8503 24.7014C25.3627 25.0572 26.8234 25.6101 28.1958 26.346C29.5688 27.1969 30.7341 28.3517 31.6046 29.7239C32.6468 31.3622 33.1814 33.2793 33.1393 35.2284C33.1008 40.2793 30.9647 43.0512 29.0559 44.2668C27.71 45.2522 26.9234 45.5181 26.6611 45.5181C27.32 45.7097 27.9591 45.965 28.57 46.2801C29.4718 46.7764 30.347 47.3207 31.192 47.9107C33.5519 49.4702 35.0377 52.3164 35.0377 55.8467C35.0377 64.6204 29.0454 69.0003 17.0608 68.9861L0 68.9967Z" fill="white"/>
<path d="M81.1402 36.0366H70.8793V68.9967H81.1402V36.0366Z" fill="white"/>
<path d="M42.3828 0V29.125H52.6437V10.4031H117.521V29.125H127.781V0H42.3828Z" fill="white"/>
<path d="M100.313 36.0366H90.0518V68.9967H100.313V36.0366Z" fill="white"/>
<path d="M128.026 36.0366L122.632 44.1251L117.279 36.0366H106.155L117.129 52.4405L106.155 68.9967H117.279L122.632 60.9082L128.026 68.9967H139.151L128.323 52.4405L139.151 36.0366H128.026Z" fill="white"/>
<path d="M70.1693 23.2021C70.1663 22.4276 70.32 21.6606 70.6206 20.9487C70.9213 20.2367 71.3625 19.5945 71.9174 19.0621C72.4435 18.5028 73.0775 18.0593 73.78 17.7592C74.4826 17.4592 75.2384 17.3091 76.0006 17.3183C76.7682 17.3088 77.5295 17.4587 78.2377 17.7586C78.9458 18.0585 79.5862 18.5022 80.119 19.0621C80.6649 19.6043 81.0984 20.2515 81.3943 20.9657C81.6904 21.68 81.8429 22.4468 81.8429 23.2215C81.8429 23.9962 81.6904 24.7632 81.3943 25.4774C81.0984 26.1916 80.6649 26.8387 80.119 27.3811C79.5862 27.9411 78.9458 28.3846 78.2377 28.6845C77.5295 28.9844 76.7682 29.1342 76.0006 29.1249C75.2384 29.1341 74.4826 28.9839 73.78 28.6838C73.0775 28.3838 72.4435 27.9403 71.9174 27.3811C71.359 26.8431 70.9157 26.1947 70.615 25.4756C70.3143 24.7568 70.1625 23.9829 70.1693 23.2021Z" fill="white"/>
<path d="M89.3414 23.2021C89.3384 22.4276 89.4921 21.6606 89.7928 20.9486C90.0933 20.2367 90.5347 19.5945 91.0895 19.0621C91.6155 18.5028 92.2496 18.0593 92.9521 17.7592C93.6547 17.4591 94.4106 17.3091 95.1729 17.3183C95.9397 17.3093 96.7004 17.4595 97.408 17.7594C98.1156 18.0593 98.7553 18.5026 99.2877 19.0621C99.8336 19.6043 100.267 20.2514 100.563 20.9656C100.859 21.68 101.012 22.4468 101.012 23.2215C101.012 23.9962 100.859 24.7632 100.563 25.4774C100.267 26.1916 99.8336 26.8387 99.2877 27.3811C98.7548 27.9411 98.1146 28.3846 97.4064 28.6845C96.6982 28.9844 95.9369 29.1342 95.1694 29.1249C94.4071 29.1341 93.6512 28.9839 92.9486 28.6838C92.2461 28.3838 91.6121 27.9403 91.086 27.3811C90.5276 26.843 90.0843 26.1946 89.7836 25.4756C89.4829 24.7568 89.3311 23.9829 89.3379 23.2021" fill="white"/>
<path d="M52.6437 41.314V36.0362H42.3828V68.9998H52.6437V55.4103C52.6437 50.728 54.4372 43.5823 64.7786 45.5282V35.8838C53.5913 34.3703 52.6437 41.314 52.6437 41.314Z" fill="white"/>
</g>
<defs>
<clipPath id="clip0_323_138">
<rect width="140" height="69" fill="white"/>
</clipPath>
</defs>
</svg>
