<svg width="154" height="52" viewBox="0 0 154 52" fill="none" xmlns="http://www.w3.org/2000/svg">
<g clip-path="url(#clip0_323_161)">
<path d="M141.736 0.000169H12.2705C11.7986 0.000169 11.3323 0.000169 10.8617 0.002769C10.4677 0.005369 10.0768 0.012922 9.67905 0.019279C8.81489 0.0295513 7.95276 0.106348 7.10015 0.249002C6.24875 0.394761 5.42401 0.669559 4.65384 1.0641C3.88462 1.46198 3.18175 1.97899 2.57074 2.59636C1.95653 3.212 1.44454 3.92359 1.05445 4.70378C0.663287 5.48241 0.392053 6.31679 0.250116 7.17809C0.10683 8.03831 0.0297261 8.90845 0.0194971 9.78069C0.00755432 10.1793 0.00629312 10.5792 0 10.9778V41.0263C0.00629312 41.43 0.00755432 41.821 0.0194971 42.2248C0.0297293 43.097 0.106833 43.9671 0.250116 44.8273C0.391661 45.6891 0.662911 46.524 1.05445 47.3029C1.44436 48.0805 1.95643 48.7893 2.57074 49.4015C3.17943 50.0216 3.88275 50.5389 4.65384 50.9338C5.42401 51.3294 6.24865 51.6058 7.10015 51.7538C7.9529 51.8953 8.81494 51.9722 9.67905 51.9837C10.0768 51.9925 10.4677 51.9976 10.8617 51.9976C11.3323 52.0002 11.7986 52.0002 12.2705 52.0002H141.736C142.199 52.0002 142.669 52.0002 143.131 51.9976C143.524 51.9976 143.926 51.9925 144.318 51.9837C145.18 51.9728 146.041 51.8959 146.892 51.7538C147.746 51.6048 148.574 51.3284 149.347 50.9338C150.118 50.5387 150.821 50.0214 151.429 49.4015C152.041 48.7869 152.555 48.0787 152.949 47.3029C153.338 46.5234 153.607 45.6886 153.746 44.8273C153.89 43.967 153.969 43.0971 153.985 42.2248C153.99 41.821 153.99 41.43 153.99 41.0263C154 40.5541 154 40.0844 154 39.6044V12.3971C154 11.9211 154 11.4488 153.99 10.9778C153.99 10.5792 153.99 10.1793 153.985 9.78064C153.969 8.90832 153.89 8.03838 153.746 7.17804C153.606 6.31724 153.338 5.48292 152.949 4.70372C152.155 3.13992 150.895 1.867 149.347 1.06398C148.574 0.670407 147.746 0.395682 146.892 0.248885C146.041 0.105603 145.18 0.0287791 144.318 0.019097C143.926 0.012753 143.524 0.005135 143.131 0.0026C142.669 0 142.199 0 141.736 0V0.000169Z" fill="#A6A6A6"/>
<path d="M10.868 50.8627C10.4759 50.8627 10.0933 50.8576 9.70425 50.8488C8.89835 50.8382 8.09433 50.7673 7.29879 50.6368C6.55698 50.5077 5.83838 50.2676 5.16667 49.9245C4.50112 49.5842 3.89408 49.138 3.36882 48.6029C2.83595 48.0742 2.39231 47.4609 2.05549 46.7875C1.71495 46.1096 1.47928 45.3831 1.35668 44.6331C1.22429 43.8272 1.15266 43.0124 1.14241 42.1956C1.13425 41.9214 1.12357 41.0086 1.12357 41.0086V10.9778C1.12357 10.9778 1.13494 10.079 1.14247 9.81494C1.15228 8.99942 1.2235 8.18584 1.3555 7.38124C1.47832 6.62922 1.71418 5.90057 2.0549 5.22051C2.39048 4.54752 2.83166 3.93381 3.36132 3.40318C3.89038 2.8675 4.49936 2.41898 5.16604 2.07397C5.8362 1.73192 6.55345 1.49355 7.29375 1.36685C8.09191 1.23498 8.89872 1.16369 9.70742 1.15357L10.8686 1.1377H143.125L144.3 1.15421C145.102 1.16382 145.901 1.23448 146.692 1.36557C147.44 1.49386 148.164 1.7339 148.842 2.07778C150.178 2.77308 151.265 3.87311 151.95 5.22369C152.286 5.89905 152.518 6.62175 152.639 7.36728C152.773 8.17848 152.847 8.99846 152.863 9.82066C152.866 10.1888 152.866 10.5843 152.866 10.9778C152.877 11.4653 152.877 11.9293 152.877 12.3972V39.6044C152.877 40.0767 152.877 40.5376 152.866 41.0022C152.866 41.425 152.866 41.8122 152.861 42.2108C152.846 43.0183 152.773 43.8237 152.641 44.6204C152.521 45.3757 152.287 46.108 151.946 46.7914C151.607 47.4575 151.166 48.0654 150.639 48.5928C150.114 49.1307 149.506 49.5795 148.839 49.922C148.163 50.2678 147.439 50.5088 146.692 50.6368C145.896 50.768 145.092 50.8389 144.286 50.8488C143.909 50.8576 143.515 50.8627 143.132 50.8627L141.736 50.8653L10.868 50.8627Z" fill="black"/>
<path d="M54.4403 35.2815H48.3487L46.8859 39.6449H44.3057L50.0755 23.5015H52.7562L58.5261 39.6449H55.9019L54.4403 35.2815ZM48.9796 33.268H53.8082L51.4279 26.1866H51.3613L48.9796 33.268Z" fill="white"/>
<path d="M70.987 33.7609C70.987 37.4184 69.049 39.7683 66.1245 39.7683C65.3837 39.8074 64.6469 39.6351 63.9986 39.2709C63.3502 38.9067 62.8165 38.3654 62.4585 37.7091H62.4032V43.5388H60.0115V27.8753H62.3266V29.8329H62.3705C62.745 29.1797 63.2877 28.6413 63.941 28.2749C64.5943 27.9085 65.3337 27.7278 66.0805 27.7522C69.0377 27.7522 70.987 30.1135 70.987 33.7609ZM68.5287 33.7609C68.5287 31.378 67.3096 29.8114 65.4496 29.8114C63.6223 29.8114 62.3932 31.411 62.3932 33.7609C62.3932 36.1324 63.6223 37.7205 65.4496 37.7205C67.3097 37.7205 68.5287 36.1654 68.5287 33.7609Z" fill="white"/>
<path d="M83.8111 33.7609C83.8111 37.4184 81.8732 39.7683 78.9486 39.7683C78.2078 39.8074 77.471 39.635 76.8227 39.2709C76.1743 38.9067 75.6406 38.3654 75.2826 37.7091H75.2273V43.5388H72.8357V27.8753H75.1506V29.8329H75.1946C75.5691 29.1797 76.1118 28.6413 76.7651 28.2749C77.4184 27.9085 78.1578 27.7278 78.9046 27.7522C81.8618 27.7522 83.8111 30.1135 83.8111 33.7609ZM81.3528 33.7609C81.3528 31.378 80.1338 29.8113 78.2737 29.8113C76.4464 29.8113 75.2173 31.411 75.2173 33.7609C75.2173 36.1323 76.4464 37.7205 78.2737 37.7205C80.1338 37.7205 81.3529 36.1654 81.3529 33.7609H81.3528Z" fill="white"/>
<path d="M92.2868 35.147C92.464 36.7479 94.0036 37.799 96.1074 37.799C98.1233 37.799 99.5736 36.7479 99.5736 35.3044C99.5736 34.0514 98.6988 33.3011 96.6277 32.7869L94.5565 32.2829C91.622 31.5669 90.2596 30.1806 90.2596 27.931C90.2596 25.1456 92.6626 23.2324 96.0747 23.2324C99.4516 23.2324 101.767 25.1456 101.845 27.931H99.4303C99.2857 26.3199 97.9674 25.3475 96.0407 25.3475C94.1141 25.3475 92.7958 26.3314 92.7958 27.7634C92.7958 28.9047 93.6378 29.5763 95.6977 30.0904L97.4584 30.5271C100.737 31.3104 102.1 32.6409 102.1 35.0022C102.1 38.0224 99.7181 39.914 95.9301 39.914C92.386 39.914 89.9931 38.0669 89.8386 35.1469L92.2868 35.147Z" fill="white"/>
<path d="M107.261 25.0898V27.8752H109.477V29.7884H107.261V36.277C107.261 37.285 107.705 37.7547 108.679 37.7547C108.942 37.7501 109.205 37.7314 109.466 37.6988V39.6005C109.028 39.6832 108.583 39.7206 108.137 39.7123C105.778 39.7123 104.858 38.8172 104.858 36.5346V29.7884H103.164V27.8752H104.858V25.0898H107.261Z" fill="white"/>
<path d="M110.76 33.7607C110.76 30.0575 112.919 27.7305 116.286 27.7305C119.664 27.7305 121.813 30.0575 121.813 33.7607C121.813 37.4741 119.676 39.791 116.286 39.791C112.898 39.791 110.76 37.4741 110.76 33.7607ZM119.377 33.7607C119.377 31.2204 118.224 29.7211 116.286 29.7211C114.348 29.7211 113.197 31.2318 113.197 33.7607C113.197 36.3112 114.348 37.7991 116.286 37.7991C118.224 37.7991 119.377 36.3112 119.377 33.7607H119.377Z" fill="white"/>
<path d="M123.785 27.8752H126.066V29.8785H126.122C126.276 29.2528 126.639 28.6999 127.149 28.3127C127.66 27.9254 128.286 27.7274 128.924 27.752C129.2 27.7511 129.475 27.7813 129.744 27.8422V30.102C129.396 29.9946 129.033 29.9452 128.669 29.956C128.322 29.9417 127.975 30.0036 127.654 30.1374C127.332 30.2711 127.043 30.4736 126.806 30.7308C126.57 30.9881 126.391 31.294 126.282 31.6277C126.173 31.9614 126.138 32.3149 126.177 32.6639V39.645H123.785L123.785 27.8752Z" fill="white"/>
<path d="M140.771 36.1881C140.449 38.3247 138.389 39.791 135.754 39.791C132.364 39.791 130.26 37.497 130.26 33.8166C130.26 30.1248 132.375 27.7305 135.653 27.7305C138.877 27.7305 140.904 29.9674 140.904 33.536V34.3638H132.674V34.5098C132.636 34.9429 132.69 35.3793 132.832 35.7899C132.974 36.2005 133.2 36.5759 133.497 36.8912C133.793 37.2065 134.153 37.4545 134.551 37.6187C134.95 37.7829 135.379 37.8595 135.809 37.8435C136.374 37.897 136.941 37.7648 137.426 37.4665C137.911 37.1683 138.287 36.7199 138.5 36.1881L140.771 36.1881ZM132.686 32.6753H138.511C138.532 32.2858 138.474 31.8961 138.339 31.5305C138.204 31.1649 137.996 30.8314 137.728 30.5509C137.46 30.2704 137.137 30.049 136.78 29.9005C136.423 29.752 136.039 29.6797 135.653 29.6881C135.264 29.6857 134.877 29.7613 134.517 29.9105C134.157 30.0597 133.829 30.2794 133.553 30.5572C133.277 30.8349 133.059 31.1651 132.91 31.5286C132.761 31.8921 132.685 32.2819 132.686 32.6753V32.6753Z" fill="white"/>
<path d="M48.6799 11.3501C49.1813 11.3138 49.6844 11.3903 50.153 11.5741C50.6216 11.758 51.044 12.0446 51.3896 12.4133C51.7353 12.7821 51.9956 13.2237 52.1518 13.7063C52.3081 14.189 52.3563 14.7006 52.2931 15.2044C52.2931 17.6825 50.9672 19.107 48.6799 19.107H45.9062V11.3501H48.6799ZM47.0989 18.01H48.5467C48.9049 18.0316 49.2635 17.9723 49.5962 17.8363C49.9289 17.7003 50.2275 17.4911 50.47 17.2238C50.7126 16.9566 50.8932 16.6381 50.9985 16.2915C51.1039 15.9449 51.1314 15.5789 51.0791 15.2202C51.1276 14.8629 51.0973 14.4992 50.9903 14.1552C50.8833 13.8111 50.7024 13.4952 50.4603 13.2301C50.2183 12.965 49.9212 12.7572 49.5904 12.6217C49.2595 12.4862 48.9031 12.4263 48.5467 12.4463H47.0989V18.01Z" fill="white"/>
<path d="M53.6404 16.1779C53.6039 15.7932 53.6475 15.4051 53.7683 15.0384C53.889 14.6717 54.0843 14.3346 54.3416 14.0486C54.599 13.7626 54.9126 13.5341 55.2625 13.3778C55.6123 13.2214 55.9907 13.1406 56.3732 13.1406C56.7558 13.1406 57.1341 13.2214 57.484 13.3778C57.8338 13.5341 58.1475 13.7626 58.4048 14.0486C58.6621 14.3346 58.8574 14.6717 58.9782 15.0384C59.0989 15.4051 59.1425 15.7932 59.1061 16.1779C59.1432 16.563 59.1002 16.9517 58.9797 17.319C58.8593 17.6862 58.6641 18.024 58.4067 18.3105C58.1493 18.5971 57.8354 18.8261 57.4852 18.9828C57.135 19.1395 56.7562 19.2204 56.3732 19.2204C55.9902 19.2204 55.6114 19.1395 55.2612 18.9828C54.911 18.8261 54.5971 18.5971 54.3397 18.3105C54.0824 18.024 53.8872 17.6862 53.7667 17.319C53.6463 16.9517 53.6032 16.563 53.6404 16.1779ZM57.9297 16.1779C57.9297 14.909 57.3654 14.167 56.3751 14.167C55.381 14.167 54.8218 14.909 54.8218 16.1779C54.8218 17.457 55.381 18.1933 56.3751 18.1933C57.3655 18.1933 57.9297 17.4519 57.9297 16.1779H57.9297Z" fill="white"/>
<path d="M66.3715 19.1072H65.1851L63.9874 14.7959H63.8969L62.7042 19.1072H61.5292L59.9318 13.2534H61.0918L62.1299 17.7202H62.2154L63.4068 13.2534H64.5039L65.6954 17.7202H65.7858L66.8189 13.2534H67.9626L66.3715 19.1072Z" fill="white"/>
<path d="M69.306 13.2535H70.407V14.1835H70.4924C70.6374 13.8495 70.8819 13.5695 71.1919 13.3825C71.5019 13.1956 71.8619 13.111 72.2218 13.1405C72.5037 13.1191 72.7868 13.1621 73.0501 13.2662C73.3135 13.3703 73.5502 13.5329 73.7428 13.742C73.9355 13.9511 74.079 14.2013 74.163 14.4741C74.2469 14.7469 74.2689 15.0352 74.2276 15.3178V19.1073H73.0839V15.6079C73.0839 14.6672 72.6792 14.1993 71.8334 14.1993C71.642 14.1903 71.4509 14.2232 71.2732 14.2958C71.0955 14.3684 70.9355 14.4789 70.8041 14.6198C70.6726 14.7607 70.5729 14.9287 70.5117 15.1121C70.4506 15.2956 70.4294 15.4903 70.4497 15.6828V19.1073H69.306L69.306 13.2535Z" fill="white"/>
<path d="M76.0499 10.9683H77.1936V19.1072H76.0499V10.9683Z" fill="white"/>
<path d="M78.7834 16.178C78.747 15.7933 78.7906 15.4051 78.9114 15.0384C79.0322 14.6717 79.2275 14.3346 79.4848 14.0486C79.7422 13.7626 80.0558 13.5341 80.4057 13.3778C80.7556 13.2214 81.134 13.1406 81.5165 13.1406C81.8991 13.1406 82.2775 13.2214 82.6274 13.3778C82.9773 13.5341 83.2909 13.7626 83.5483 14.0486C83.8056 14.3346 84.0009 14.6717 84.1217 15.0384C84.2425 15.4051 84.2861 15.7933 84.2497 16.178C84.2868 16.5631 84.2437 16.9518 84.1232 17.3191C84.0027 17.6864 83.8075 18.0241 83.5501 18.3107C83.2927 18.5972 82.9788 18.8262 82.6286 18.9828C82.2784 19.1395 81.8996 19.2205 81.5165 19.2205C81.1335 19.2205 80.7547 19.1395 80.4045 18.9828C80.0543 18.8262 79.7404 18.5972 79.483 18.3107C79.2256 18.0241 79.0304 17.6864 78.9099 17.3191C78.7894 16.9518 78.7463 16.5631 78.7834 16.178ZM83.0727 16.178C83.0727 14.9091 82.5084 14.1671 81.5181 14.1671C80.524 14.1671 79.9648 14.9091 79.9648 16.178C79.9648 17.4571 80.524 18.1934 81.5181 18.1934C82.5085 18.1934 83.0727 17.452 83.0727 16.178H83.0727Z" fill="white"/>
<path d="M85.4537 17.4519C85.4537 16.3982 86.2304 15.7908 87.6091 15.7044L89.1788 15.613V15.1078C89.1788 14.4895 88.7741 14.1404 87.9924 14.1404C87.354 14.1404 86.9116 14.3771 86.7846 14.791H85.6774C85.7943 13.7855 86.7306 13.1406 88.0452 13.1406C89.498 13.1406 90.3174 13.8712 90.3174 15.1078V19.1074H89.2165V18.2848H89.126C88.9423 18.5799 88.6844 18.8204 88.3786 18.9819C88.0728 19.1434 87.7301 19.22 87.3854 19.2039C87.1421 19.2294 86.8962 19.2032 86.6636 19.1269C86.431 19.0506 86.2167 18.9259 86.0347 18.7608C85.8528 18.5958 85.707 18.394 85.6069 18.1686C85.5069 17.9431 85.4547 17.699 85.4537 17.4519ZM89.1788 16.9517V16.4623L87.7637 16.5537C86.9656 16.6077 86.6036 16.8819 86.6036 17.398C86.6036 17.9248 87.0561 18.2314 87.6782 18.2314C87.8605 18.2501 88.0447 18.2315 88.2197 18.1768C88.3947 18.122 88.5571 18.0323 88.6971 17.9129C88.8371 17.7935 88.9519 17.6469 89.0346 17.4818C89.1174 17.3167 89.1664 17.1364 89.1788 16.9517Z" fill="white"/>
<path d="M91.8205 16.1778C91.8205 14.3281 92.7619 13.1563 94.226 13.1563C94.5882 13.1395 94.9476 13.2271 95.2623 13.4089C95.577 13.5908 95.8339 13.8594 96.0031 14.1833H96.0885V10.9683H97.2322V19.1072H96.1363V18.1824H96.0458C95.8636 18.5041 95.5977 18.7693 95.2769 18.9494C94.9561 19.1294 94.5927 19.2173 94.226 19.2037C92.7518 19.2038 91.8205 18.032 91.8205 16.1778ZM93.0019 16.1778C93.0019 17.4194 93.5813 18.1665 94.5503 18.1665C95.5142 18.1665 96.1099 17.4086 96.1099 16.1829C96.1099 14.9629 95.5079 14.1942 94.5503 14.1942C93.5876 14.1942 93.0019 14.9464 93.0019 16.1778H93.0019Z" fill="white"/>
<path d="M101.964 16.1779C101.928 15.7932 101.971 15.4051 102.092 15.0384C102.213 14.6717 102.408 14.3346 102.665 14.0486C102.923 13.7626 103.236 13.5341 103.586 13.3778C103.936 13.2214 104.314 13.1406 104.697 13.1406C105.079 13.1406 105.458 13.2214 105.808 13.3778C106.157 13.5341 106.471 13.7626 106.728 14.0486C106.986 14.3346 107.181 14.6717 107.302 15.0384C107.423 15.4051 107.466 15.7932 107.43 16.1779C107.467 16.563 107.424 16.9517 107.303 17.319C107.183 17.6862 106.988 18.024 106.73 18.3105C106.473 18.5971 106.159 18.8261 105.809 18.9828C105.459 19.1395 105.08 19.2204 104.697 19.2204C104.314 19.2204 103.935 19.1395 103.585 18.9828C103.235 18.8261 102.921 18.5971 102.663 18.3105C102.406 18.024 102.211 17.6862 102.09 17.319C101.97 16.9517 101.927 16.563 101.964 16.1779ZM106.253 16.1779C106.253 14.909 105.689 14.167 104.699 14.167C103.705 14.167 103.145 14.909 103.145 16.1779C103.145 17.457 103.705 18.1933 104.699 18.1933C105.689 18.1933 106.253 17.4519 106.253 16.1779Z" fill="white"/>
<path d="M108.964 13.2535H110.065V14.1835H110.151C110.296 13.8495 110.54 13.5695 110.85 13.3825C111.16 13.1956 111.52 13.111 111.88 13.1405C112.162 13.1191 112.445 13.1621 112.708 13.2662C112.972 13.3703 113.208 13.5329 113.401 13.742C113.594 13.9511 113.737 14.2013 113.821 14.4741C113.905 14.7469 113.927 15.0352 113.886 15.3178V19.1073H112.742V15.6079C112.742 14.6672 112.337 14.1993 111.492 14.1993C111.3 14.1903 111.109 14.2232 110.931 14.2958C110.754 14.3684 110.594 14.4789 110.462 14.6198C110.331 14.7607 110.231 14.9287 110.17 15.1121C110.109 15.2956 110.088 15.4903 110.108 15.6828V19.1073H108.964V13.2535Z" fill="white"/>
<path d="M120.348 11.7959V13.28H121.604V14.2531H120.348V17.2631C120.348 17.8763 120.598 18.1448 121.167 18.1448C121.313 18.1444 121.459 18.1354 121.604 18.1182V19.0805C121.398 19.1176 121.19 19.1373 120.981 19.1395C119.71 19.1395 119.203 18.6875 119.203 17.5589V14.253H118.283V13.2799H119.203V11.7959H120.348Z" fill="white"/>
<path d="M123.166 10.9683H124.299V14.1941H124.39C124.542 13.857 124.793 13.5755 125.109 13.3878C125.425 13.2002 125.791 13.1155 126.157 13.1455C126.437 13.1301 126.718 13.1774 126.978 13.2841C127.238 13.3907 127.472 13.5541 127.663 13.7625C127.853 13.971 127.996 14.2193 128.081 14.4899C128.165 14.7605 128.19 15.0466 128.153 15.3278V19.1072H127.008V15.6128C127.008 14.6778 126.577 14.2043 125.769 14.2043C125.572 14.188 125.374 14.2153 125.189 14.2843C125.004 14.3532 124.836 14.4622 124.697 14.6036C124.558 14.7449 124.452 14.9153 124.385 15.1026C124.318 15.29 124.292 15.4899 124.309 15.6884V19.1072H123.166L123.166 10.9683Z" fill="white"/>
<path d="M134.821 17.5265C134.666 18.0615 134.329 18.5242 133.87 18.8338C133.411 19.1434 132.859 19.2801 132.31 19.22C131.928 19.2302 131.549 19.1563 131.198 19.0035C130.847 18.8507 130.534 18.6227 130.279 18.3352C130.024 18.0477 129.835 17.7077 129.723 17.3388C129.612 16.9698 129.581 16.5807 129.633 16.1985C129.582 15.8152 129.613 15.4253 129.725 15.0552C129.836 14.6851 130.025 14.3435 130.278 14.0535C130.532 13.7635 130.844 13.5319 131.193 13.3743C131.543 13.2168 131.922 13.1369 132.305 13.1402C133.917 13.1402 134.89 14.253 134.89 16.0912V16.4944H130.798V16.5591C130.78 16.7739 130.807 16.9901 130.877 17.1939C130.946 17.3977 131.057 17.5845 131.203 17.7424C131.348 17.9003 131.524 18.0258 131.72 18.1108C131.916 18.1958 132.128 18.2385 132.341 18.2361C132.615 18.2693 132.892 18.2195 133.138 18.0931C133.383 17.9668 133.586 17.7695 133.72 17.5264L134.821 17.5265ZM130.798 15.6399H133.725C133.739 15.4435 133.713 15.2461 133.647 15.0606C133.582 14.8751 133.479 14.7054 133.344 14.5626C133.21 14.4198 133.048 14.307 132.867 14.2313C132.687 14.1557 132.494 14.119 132.299 14.1235C132.101 14.121 131.905 14.1585 131.721 14.2338C131.538 14.3092 131.372 14.4208 131.232 14.5621C131.092 14.7034 130.982 14.8716 130.907 15.0567C130.833 15.2418 130.795 15.4401 130.798 15.6399H130.798Z" fill="white"/>
<path d="M31.8761 26.391C31.89 25.306 32.1753 24.2421 32.7055 23.2983C33.2358 22.3546 33.9937 21.5617 34.9089 20.9933C34.3275 20.1546 33.5606 19.4644 32.6689 18.9775C31.7773 18.4906 30.7856 18.2204 29.7725 18.1884C27.6114 17.9592 25.5163 19.4946 24.4151 19.4946C23.2925 19.4946 21.597 18.2111 19.7712 18.249C18.5902 18.2876 17.4392 18.6345 16.4304 19.256C15.4216 19.8775 14.5894 20.7523 14.0148 21.7953C11.5259 26.1482 13.3824 32.5456 15.7666 36.0642C16.9595 37.7871 18.3536 39.7117 20.1777 39.6435C21.9628 39.5687 22.6295 38.4937 24.7842 38.4937C26.9189 38.4937 27.5444 39.6435 29.4056 39.6001C31.321 39.5687 32.5279 37.8695 33.6789 36.1302C34.5359 34.9025 35.1955 33.5457 35.633 32.1099C34.5202 31.6345 33.5705 30.8387 32.9024 29.8217C32.2344 28.8047 31.8774 27.6115 31.8761 26.391Z" fill="white"/>
<path d="M28.3607 15.8742C29.4051 14.6078 29.9196 12.9799 29.795 11.3364C28.1994 11.5057 26.7255 12.276 25.667 13.4939C25.1495 14.0889 24.7531 14.7811 24.5006 15.5309C24.248 16.2807 24.1442 17.0734 24.1952 17.8637C24.9932 17.872 25.7828 17.6973 26.5043 17.3527C27.2258 17.0081 27.8606 16.5026 28.3607 15.8742Z" fill="white"/>
</g>
<defs>
<clipPath id="clip0_323_161">
<rect width="154" height="52" fill="white"/>
</clipPath>
</defs>
</svg>
