<svg width="175" height="52" viewBox="0 0 175 52" fill="none" xmlns="http://www.w3.org/2000/svg">
<g clip-path="url(#clip0_323_190)">
<path fill-rule="evenodd" clip-rule="evenodd" d="M168.519 52H6.51058C2.92232 52 0 49.0693 0 45.5V6.5C0 2.91771 2.92232 0 6.51058 0H168.519C172.104 0 175.029 2.91771 175.029 6.5V45.5C175.029 49.0693 172.104 52 168.519 52Z" fill="black"/>
<path fill-rule="evenodd" clip-rule="evenodd" d="M168.519 1.04065C171.528 1.04065 173.991 3.49476 173.991 6.5V45.5C173.991 48.5052 171.544 50.9594 168.519 50.9594H6.51058C3.50097 50.9594 1.03768 48.5052 1.03768 45.5V6.5C1.03768 3.49476 3.48481 1.04065 6.51058 1.04065H168.519ZM168.519 0H6.51058C2.92232 0 0 2.93067 0 6.5V45.5C0 49.0823 2.92232 52 6.51058 52H168.519C172.104 52 175.029 49.0823 175.029 45.5V6.5C175.029 2.93067 172.104 0 168.519 0Z" fill="#A6A6A6"/>
<path d="M88.3244 28.2776C85.2755 28.2776 82.7905 30.602 82.7905 33.8065C82.7905 36.9902 85.2755 39.3354 88.3244 39.3354C91.3733 39.3354 93.8583 36.9902 93.8583 33.8065C93.8583 30.602 91.3733 28.2776 88.3244 28.2776ZM88.3244 37.1579C86.6535 37.1579 85.212 35.776 85.212 33.8065C85.212 31.8162 86.6535 30.4551 88.3244 30.4551C89.9954 30.4551 91.4355 31.8162 91.4355 33.8065C91.4355 35.7747 89.9954 37.1579 88.3244 37.1579ZM76.2507 28.2776C73.2018 28.2776 70.7168 30.602 70.7168 33.8065C70.7168 36.9902 73.2018 39.3354 76.2507 39.3354C79.2996 39.3354 81.7846 36.9902 81.7846 33.8065C81.7859 30.602 79.2996 28.2776 76.2507 28.2776ZM76.2507 37.1579C74.5798 37.1579 73.1396 35.776 73.1396 33.8065C73.1396 31.8162 74.5811 30.4551 76.2507 30.4551C77.9216 30.4551 79.3618 31.8162 79.3618 33.8065C79.3631 35.7747 77.9216 37.1579 76.2507 37.1579ZM61.8904 29.9741V32.3193H67.4878C67.3205 33.6388 66.8824 34.6021 66.2135 35.2729C65.3994 36.0893 64.1252 36.9902 61.8904 36.9902C58.4448 36.9902 55.7511 34.2043 55.7511 30.7489C55.7511 27.2935 58.4448 24.5076 61.8904 24.5076C63.7492 24.5076 65.1065 25.2408 66.1085 26.1833L67.7587 24.5284C66.36 23.1881 64.5011 22.1611 61.8904 22.1611C57.1705 22.1611 53.2026 26.0143 53.2026 30.7476C53.2026 35.4809 57.1705 39.3341 61.8904 39.3341C64.4376 39.3341 66.36 38.4969 67.8637 36.9252C69.4089 35.3756 69.8898 33.1968 69.8898 31.4379C69.8898 30.8932 69.8483 30.3901 69.7641 29.9715H61.8904V29.9741ZM120.623 31.7954C120.164 30.5591 118.764 28.2763 115.903 28.2763C113.063 28.2763 110.704 30.5175 110.704 33.8052C110.704 36.9044 113.042 39.3341 116.175 39.3341C118.702 39.3341 120.164 37.7845 120.769 36.8836L118.89 35.6265C118.264 36.5482 117.407 37.1553 116.175 37.1553C114.943 37.1553 114.066 36.5898 113.502 35.4796L120.874 32.422L120.623 31.7954ZM113.104 33.6388C113.042 31.5029 114.755 30.4135 115.986 30.4135C116.947 30.4135 117.761 30.8945 118.033 31.5861L113.104 33.6388ZM107.11 39H109.533V22.7487H107.11V39ZM103.142 29.5126H103.059C102.516 28.8639 101.473 28.2763 100.157 28.2763C97.3998 28.2763 94.8733 30.706 94.8733 33.826C94.8733 36.9252 97.3998 39.3341 100.157 39.3341C101.473 39.3341 102.516 38.7478 103.059 38.077H103.142V38.8726C103.142 40.9877 102.015 42.1187 100.197 42.1187C98.7142 42.1187 97.7952 41.0501 97.4192 40.1505L95.3102 41.0306C95.9155 42.497 97.5242 44.2975 100.197 44.2975C103.037 44.2975 105.439 42.6218 105.439 38.5385V28.6117H103.142V29.5126ZM100.366 37.1579C98.6948 37.1579 97.2961 35.7552 97.2961 33.8273C97.2961 31.8799 98.6948 30.4551 100.366 30.4551C102.016 30.4551 103.31 31.8786 103.31 33.8273C103.31 35.7539 102.016 37.1579 100.366 37.1579ZM131.971 22.7487H126.175V39H128.593V32.8432H131.969C134.65 32.8432 137.286 30.8971 137.286 27.7966C137.286 24.6961 134.651 22.7487 131.971 22.7487ZM132.033 30.5812H128.593V25.0107H132.033C133.841 25.0107 134.868 26.5122 134.868 27.7966C134.868 29.055 133.841 30.5812 132.033 30.5812ZM146.982 28.2477C145.231 28.2477 143.417 29.0212 142.666 30.7359L144.814 31.6355C145.273 30.7359 146.128 30.4434 147.025 30.4434C148.276 30.4434 149.547 31.1961 149.568 32.5338V32.7015C149.13 32.4506 148.191 32.0736 147.045 32.0736C144.731 32.0736 142.375 33.3489 142.375 35.7331C142.375 37.908 144.273 39.3081 146.398 39.3081C148.025 39.3081 148.921 38.5762 149.484 37.7195H149.567V38.974H151.901V32.7431C151.901 29.8571 149.755 28.2477 146.982 28.2477ZM146.689 37.154C145.897 37.154 144.791 36.7562 144.791 35.7747C144.791 34.5202 146.168 34.0392 147.355 34.0392C148.418 34.0392 148.918 34.2693 149.565 34.5826C149.379 36.088 148.086 37.154 146.689 37.154ZM160.408 28.6026L157.635 35.6486H157.552L154.675 28.6026H152.07L156.385 38.4501L153.925 43.9283H156.447L163.099 28.6026H160.408ZM138.621 39H141.04V22.7487H138.621V39Z" fill="white"/>
<path fill-rule="evenodd" clip-rule="evenodd" d="M95.4191 15.8913C94.6543 16.6804 93.7041 17.073 92.5672 17.073C91.4304 17.073 90.4802 16.6791 89.7167 15.8913C88.9518 15.1035 88.5707 14.1389 88.5707 12.9988C88.5707 11.8587 88.9518 10.8941 89.7167 10.1063C90.4802 9.31724 91.4304 8.92334 92.5672 8.92334C93.6976 8.92334 94.6465 9.31984 95.4139 10.1115C96.1813 10.9032 96.565 11.8652 96.565 12.9988C96.565 14.1402 96.1826 15.1048 95.4191 15.8913ZM90.4543 15.2387C91.0298 15.8237 91.7337 16.1149 92.5672 16.1149C93.4007 16.1149 94.1046 15.8224 94.6802 15.2387C95.2557 14.6537 95.5448 13.9075 95.5448 13.0001C95.5448 12.0927 95.2557 11.3452 94.6802 10.7615C94.1059 10.1765 93.4007 9.88534 92.5672 9.88534C91.7337 9.88534 91.0298 10.1778 90.4543 10.7615C89.88 11.3465 89.5909 12.0927 89.5909 13.0001C89.5909 13.9075 89.88 14.6537 90.4543 15.2387Z" fill="white"/>
<path d="M61.4678 13.316C61.4678 14.4054 61.1463 15.2725 60.502 15.9199C59.7709 16.6895 58.8168 17.0743 57.645 17.0743C56.5224 17.0743 55.567 16.6843 54.7828 15.9043C53.9972 15.123 53.6044 14.1558 53.6044 13.0014C53.6044 11.8457 53.9972 10.8785 54.7828 10.0985C55.567 9.31724 56.5224 8.92724 57.645 8.92724C58.2024 8.92724 58.7352 9.03644 59.2407 9.25354C59.7476 9.47194 60.1533 9.76184 60.4567 10.1245L59.7735 10.8109C59.2589 10.1934 58.5498 9.88534 57.6437 9.88534C56.8244 9.88534 56.1167 10.1739 55.5191 10.7511C54.9228 11.3283 54.6246 12.0771 54.6246 13.0001C54.6246 13.9231 54.9228 14.6719 55.5204 15.2504C56.118 15.8276 56.8257 16.1162 57.645 16.1162C58.5135 16.1162 59.2381 15.8263 59.8176 15.2452C60.1935 14.8669 60.4113 14.3404 60.4696 13.6657H57.645V12.7271H61.4133C61.4509 12.9312 61.4678 13.1275 61.4678 13.316Z" fill="white"/>
<path d="M67.4437 10.0582H63.9022V12.5308H67.0963V13.4681H63.9022V15.9407H67.4437V16.9001H62.9028V9.10014H67.4437V10.0582Z" fill="white"/>
<path d="M70.6572 16.9001H71.6567V10.0582H73.8292V9.10014H68.4846V10.0582H70.6572V16.9001Z" fill="white"/>
<path d="M77.6974 16.9001V9.10014H78.6968V16.9001H77.6974Z" fill="white"/>
<path d="M82.1281 16.9001H83.1276V10.0582H85.3002V9.10014H79.9555V10.0582H82.1281V16.9001Z" fill="white"/>
<path d="M97.9676 9.10014V16.9001H98.9644V12.0407L98.9216 10.5379H98.9644L102.919 16.9001H103.963V9.10014H102.964V13.6657L103.006 15.1685H102.964L99.1835 9.10014H97.9676Z" fill="white"/>
<path fill-rule="evenodd" clip-rule="evenodd" d="M95.4191 15.8913C94.6543 16.6804 93.7041 17.073 92.5672 17.073C91.4304 17.073 90.4802 16.6791 89.7167 15.8913C88.9518 15.1035 88.5707 14.1389 88.5707 12.9988C88.5707 11.8587 88.9518 10.8941 89.7167 10.1063C90.4802 9.31724 91.4304 8.92334 92.5672 8.92334C93.6976 8.92334 94.6465 9.31984 95.4139 10.1115C96.1813 10.9032 96.565 11.8652 96.565 12.9988C96.565 14.1402 96.1826 15.1048 95.4191 15.8913ZM90.4543 15.2387C91.0298 15.8237 91.7337 16.1149 92.5672 16.1149C93.4007 16.1149 94.1046 15.8224 94.6802 15.2387C95.2557 14.6537 95.5448 13.9075 95.5448 13.0001C95.5448 12.0927 95.2557 11.3452 94.6802 10.7615C94.1059 10.1765 93.4007 9.88534 92.5672 9.88534C91.7337 9.88534 91.0298 10.1778 90.4543 10.7615C89.88 11.3465 89.5909 12.0927 89.5909 13.0001C89.5909 13.9075 89.88 14.6537 90.4543 15.2387Z" stroke="white" stroke-width="0.2" stroke-miterlimit="10"/>
<path d="M61.4678 13.316C61.4678 14.4054 61.1463 15.2725 60.502 15.9199C59.7709 16.6895 58.8168 17.0743 57.645 17.0743C56.5224 17.0743 55.567 16.6843 54.7828 15.9043C53.9972 15.123 53.6044 14.1558 53.6044 13.0014C53.6044 11.8457 53.9972 10.8785 54.7828 10.0985C55.567 9.31724 56.5224 8.92724 57.645 8.92724C58.2024 8.92724 58.7352 9.03644 59.2407 9.25354C59.7476 9.47194 60.1533 9.76184 60.4567 10.1245L59.7735 10.8109C59.2589 10.1934 58.5498 9.88534 57.6437 9.88534C56.8244 9.88534 56.1167 10.1739 55.5191 10.7511C54.9228 11.3283 54.6246 12.0771 54.6246 13.0001C54.6246 13.9231 54.9228 14.6719 55.5204 15.2504C56.118 15.8276 56.8257 16.1162 57.645 16.1162C58.5135 16.1162 59.2381 15.8263 59.8176 15.2452C60.1935 14.8669 60.4113 14.3404 60.4696 13.6657H57.645V12.7271H61.4133C61.4509 12.9312 61.4678 13.1275 61.4678 13.316Z" stroke="white" stroke-width="0.2" stroke-miterlimit="10"/>
<path d="M67.4437 10.0582H63.9022V12.5308H67.0963V13.4681H63.9022V15.9407H67.4437V16.9001H62.9028V9.10014H67.4437V10.0582Z" stroke="white" stroke-width="0.2" stroke-miterlimit="10"/>
<path d="M70.6572 16.9001H71.6567V10.0582H73.8292V9.10014H68.4846V10.0582H70.6572V16.9001Z" stroke="white" stroke-width="0.2" stroke-miterlimit="10"/>
<path d="M77.6974 16.9001V9.10014H78.6968V16.9001H77.6974Z" stroke="white" stroke-width="0.2" stroke-miterlimit="10"/>
<path d="M82.1281 16.9001H83.1276V10.0582H85.3002V9.10014H79.9555V10.0582H82.1281V16.9001Z" stroke="white" stroke-width="0.2" stroke-miterlimit="10"/>
<path d="M97.9676 9.10014V16.9001H98.9644V12.0407L98.9216 10.5379H98.9644L102.919 16.9001H103.963V9.10014H102.964V13.6657L103.006 15.1685H102.964L99.1835 9.10014H97.9676Z" stroke="white" stroke-width="0.2" stroke-miterlimit="10"/>
<path d="M13.5268 9.799C13.1496 10.1994 12.9266 10.8208 12.9266 11.6255V40.3763C12.9266 41.1823 13.1496 41.8024 13.5268 42.2028L13.6227 42.2964L29.6826 26.1907V26.0009V25.8111L13.6227 9.7041L13.5268 9.799Z" fill="url(#paint0_linear_323_190)"/>
<path d="M35.0362 31.5623L29.6838 26.192V26.0022V25.8124L35.0375 20.4434L35.1581 20.5123L41.5009 24.1263C43.3131 25.1585 43.3131 26.8472 41.5009 27.8807L35.1581 31.4947L35.0362 31.5623Z" fill="url(#paint1_linear_323_190)"/>
<path d="M35.1582 31.4922L29.6839 26.001L13.5269 42.2029C14.1244 42.8373 15.1096 42.9153 16.2206 42.2822L35.1582 31.4922Z" fill="url(#paint2_linear_323_190)"/>
<path d="M35.1581 20.5097L16.2218 9.71975C15.1109 9.08665 14.1257 9.16595 13.5281 9.79905L29.6839 26.0009L35.1581 20.5097Z" fill="url(#paint3_linear_323_190)"/>
<path opacity="0.2" d="M35.0376 31.3716L16.2219 42.0927C15.1693 42.692 14.2282 42.653 13.6241 42.107L13.5269 42.2045L13.6228 42.2981C14.2269 42.8441 15.168 42.8844 16.2206 42.2838L35.1569 31.4938L35.0376 31.3716Z" fill="black"/>
<path opacity="0.12" d="M13.5268 42.013C13.1496 41.6126 12.9266 40.9912 12.9266 40.1865V40.3763C12.9266 41.181 13.1496 41.8024 13.5268 42.2028L13.624 42.1053L13.5268 42.013Z" fill="black"/>
<path opacity="0.12" d="M41.5009 27.6885L35.0376 31.3714L35.1582 31.4923L41.5009 27.8783C42.407 27.3622 42.8594 26.6823 42.8594 26.0024C42.783 26.6173 42.3215 27.2205 41.5009 27.6885Z" fill="black"/>
<path opacity="0.25" d="M16.2205 9.9097L41.4996 24.3137C42.3215 24.7817 42.7816 25.3849 42.8581 26.0011C42.8581 25.3212 42.4057 24.64 41.4996 24.1239L16.2205 9.7199C14.4083 8.6877 12.9266 9.5444 12.9266 11.6257V11.8168C12.9266 9.7355 14.4096 8.8775 16.2205 9.9097Z" fill="white"/>
</g>
<defs>
<linearGradient id="paint0_linear_323_190" x1="28.2587" y1="11.3223" x2="6.44168" y2="33.0772" gradientUnits="userSpaceOnUse">
<stop stop-color="#00A0FF"/>
<stop offset="0.0066" stop-color="#00A1FF"/>
<stop offset="0.2601" stop-color="#00BEFF"/>
<stop offset="0.5122" stop-color="#00D2FF"/>
<stop offset="0.7604" stop-color="#00DFFF"/>
<stop offset="1" stop-color="#00E3FF"/>
</linearGradient>
<linearGradient id="paint1_linear_323_190" x1="43.8592" y1="26.0015" x2="12.4929" y2="26.0015" gradientUnits="userSpaceOnUse">
<stop stop-color="#FFE000"/>
<stop offset="0.4087" stop-color="#FFBD00"/>
<stop offset="0.7754" stop-color="#FFA500"/>
<stop offset="1" stop-color="#FF9C00"/>
</linearGradient>
<linearGradient id="paint2_linear_323_190" x1="32.183" y1="28.9847" x2="2.59735" y2="58.4861" gradientUnits="userSpaceOnUse">
<stop stop-color="#FF3A44"/>
<stop offset="1" stop-color="#C31162"/>
</linearGradient>
<linearGradient id="paint3_linear_323_190" x1="9.45932" y1="0.228839" x2="22.6706" y2="13.4024" gradientUnits="userSpaceOnUse">
<stop stop-color="#32A071"/>
<stop offset="0.0685" stop-color="#2DA771"/>
<stop offset="0.4762" stop-color="#15CF74"/>
<stop offset="0.8009" stop-color="#06E775"/>
<stop offset="1" stop-color="#00F076"/>
</linearGradient>
<clipPath id="clip0_323_190">
<rect width="175" height="52" fill="white"/>
</clipPath>
</defs>
</svg>
