<svg width="24" height="25" viewBox="0 0 24 25" fill="none" xmlns="http://www.w3.org/2000/svg">
<path d="M20.5 16.5H19.908C19.9672 16.3399 19.9983 16.1707 20 16V14C20 13.6022 19.842 13.2206 19.5607 12.9393C19.2794 12.658 18.8978 12.5 18.5 12.5H18V7C18 6.60218 17.842 6.22064 17.5607 5.93934C17.2794 5.65804 16.8978 5.5 16.5 5.5H7.5C7.10218 5.5 6.72064 5.65804 6.43934 5.93934C6.15804 6.22064 6 6.60218 6 7V12.5H5.5C5.10218 12.5 4.72064 12.658 4.43934 12.9393C4.15804 13.2206 4 13.6022 4 14V16C4.00166 16.1707 4.03278 16.3399 4.092 16.5H3.5C3.36739 16.5 3.24021 16.5527 3.14645 16.6464C3.05268 16.7402 3 16.8674 3 17V19C3 19.1326 3.05268 19.2598 3.14645 19.3536C3.24021 19.4473 3.36739 19.5 3.5 19.5H5V21.275C5 21.4076 5.05268 21.5348 5.14645 21.6286C5.24021 21.7223 5.36739 21.775 5.5 21.775C5.63261 21.775 5.75979 21.7223 5.85355 21.6286C5.94732 21.5348 6 21.4076 6 21.275V19.5H18V21.275C18 21.4076 18.0527 21.5348 18.1464 21.6286C18.2402 21.7223 18.3674 21.775 18.5 21.775C18.6326 21.775 18.7598 21.7223 18.8536 21.6286C18.9473 21.5348 19 21.4076 19 21.275V19.5H20.5C20.6326 19.5 20.7598 19.4473 20.8536 19.3536C20.9473 19.2598 21 19.1326 21 19V17C21 16.8674 20.9473 16.7402 20.8536 16.6464C20.7598 16.5527 20.6326 16.5 20.5 16.5ZM7 7C7 6.86739 7.05268 6.74021 7.14645 6.64645C7.24021 6.55268 7.36739 6.5 7.5 6.5H16.5C16.6326 6.5 16.7598 6.55268 16.8536 6.64645C16.9473 6.74021 17 6.86739 17 7V12.5H16V11C16 10.6022 15.842 10.2206 15.5607 9.93934C15.2794 9.65804 14.8978 9.5 14.5 9.5H9.5C9.10218 9.5 8.72064 9.65804 8.43934 9.93934C8.15804 10.2206 8 10.6022 8 11V12.5H7V7ZM15 12.5H9V11C9 10.8674 9.05268 10.7402 9.14645 10.6464C9.24021 10.5527 9.36739 10.5 9.5 10.5H14.5C14.6326 10.5 14.7598 10.5527 14.8536 10.6464C14.9473 10.7402 15 10.8674 15 11V12.5ZM5 16V14C5 13.8674 5.05268 13.7402 5.14645 13.6464C5.24021 13.5527 5.36739 13.5 5.5 13.5H18.5C18.6326 13.5 18.7598 13.5527 18.8536 13.6464C18.9473 13.7402 19 13.8674 19 14V16C19 16.1326 18.9473 16.2598 18.8536 16.3536C18.7598 16.4473 18.6326 16.5 18.5 16.5H5.5C5.36739 16.5 5.24021 16.4473 5.14645 16.3536C5.05268 16.2598 5 16.1326 5 16ZM20 18.5H4V17.5H20V18.5Z" fill="#2C85C3"/>
</svg>
