<svg width="24" height="25" viewBox="0 0 24 25" fill="none" xmlns="http://www.w3.org/2000/svg">
<path d="M19.8598 12.9999L21.4718 11.9149C21.5398 11.8692 21.5956 11.8074 21.6341 11.7351C21.6727 11.6627 21.6929 11.5819 21.6929 11.4999C21.6929 11.4179 21.6727 11.3372 21.6341 11.2648C21.5956 11.1925 21.5398 11.1307 21.4718 11.0849L12.2788 4.89294C12.1963 4.83748 12.0991 4.80786 11.9998 4.80786C11.9004 4.80786 11.8032 4.83748 11.7208 4.89294L2.52776 11.0849C2.4597 11.1307 2.40393 11.1925 2.36537 11.2648C2.32681 11.3372 2.30664 11.4179 2.30664 11.4999C2.30664 11.5819 2.32681 11.6627 2.36537 11.7351C2.40393 11.8074 2.4597 11.8692 2.52776 11.9149L4.13976 12.9999L2.52776 14.0849C2.4597 14.1307 2.40393 14.1925 2.36537 14.2648C2.32681 14.3372 2.30664 14.4179 2.30664 14.4999C2.30664 14.5819 2.32681 14.6627 2.36537 14.7351C2.40393 14.8074 2.4597 14.8692 2.52776 14.9149L11.7208 21.1069C11.8032 21.1624 11.9004 21.192 11.9998 21.192C12.0991 21.192 12.1963 21.1624 12.2788 21.1069L21.4718 14.9149C21.5398 14.8692 21.5956 14.8074 21.6341 14.7351C21.6727 14.6627 21.6929 14.5819 21.6929 14.4999C21.6929 14.4179 21.6727 14.3372 21.6341 14.2648C21.5956 14.1925 21.5398 14.1307 21.4718 14.0849L19.8598 12.9999ZM16.5238 14.0419L12.8998 11.5999L16.6728 9.05894L20.2998 11.4999L16.5238 14.0419ZM15.6298 14.6419L11.9998 17.0889L8.36976 14.6439L11.9998 12.1999L15.6298 14.6419ZM11.9998 5.91094L15.7728 8.45194L11.9998 10.9939L8.22676 8.45194L11.9998 5.91094ZM7.33276 9.05494L11.1048 11.5999L7.47576 14.0419L3.69976 11.4999L7.33276 9.05494ZM11.9998 20.0889L3.69976 14.4999L5.03076 13.5999L11.7178 18.0999C11.8002 18.1554 11.8974 18.185 11.9968 18.185C12.0961 18.185 12.1933 18.1554 12.2758 18.0999L18.9628 13.5999L20.2998 14.4999L11.9998 20.0889Z" fill="#2C85C3"/>
</svg>
