<svg width="20" height="18" viewBox="0 0 20 18" fill="none" xmlns="http://www.w3.org/2000/svg">
<path d="M17.8598 8.99994L19.4718 7.91494C19.5398 7.8692 19.5956 7.80743 19.6341 7.73506C19.6727 7.66269 19.6929 7.58194 19.6929 7.49994C19.6929 7.41794 19.6727 7.3372 19.6341 7.26482C19.5956 7.19245 19.5398 7.13068 19.4718 7.08494L10.2788 0.892941C10.1963 0.837482 10.0991 0.807861 9.99976 0.807861C9.90037 0.807861 9.80324 0.837482 9.72076 0.892941L0.527759 7.08494C0.459697 7.13068 0.403929 7.19245 0.365369 7.26482C0.326809 7.3372 0.306641 7.41794 0.306641 7.49994C0.306641 7.58194 0.326809 7.66269 0.365369 7.73506C0.403929 7.80743 0.459697 7.8692 0.527759 7.91494L2.13976 8.99994L0.527759 10.0849C0.459697 10.1307 0.403929 10.1925 0.365369 10.2648C0.326809 10.3372 0.306641 10.4179 0.306641 10.4999C0.306641 10.5819 0.326809 10.6627 0.365369 10.7351C0.403929 10.8074 0.459697 10.8692 0.527759 10.9149L9.72076 17.1069C9.80324 17.1624 9.90037 17.192 9.99976 17.192C10.0991 17.192 10.1963 17.1624 10.2788 17.1069L19.4718 10.9149C19.5398 10.8692 19.5956 10.8074 19.6341 10.7351C19.6727 10.6627 19.6929 10.5819 19.6929 10.4999C19.6929 10.4179 19.6727 10.3372 19.6341 10.2648C19.5956 10.1925 19.5398 10.1307 19.4718 10.0849L17.8598 8.99994ZM14.5238 10.0419L10.8998 7.59994L14.6728 5.05894L18.2998 7.49994L14.5238 10.0419ZM13.6298 10.6419L9.99976 13.0889L6.36976 10.6439L9.99976 8.19994L13.6298 10.6419ZM9.99976 1.91094L13.7728 4.45194L9.99976 6.99394L6.22676 4.45194L9.99976 1.91094ZM5.33276 5.05494L9.10476 7.59994L5.47576 10.0419L1.69976 7.49994L5.33276 5.05494ZM9.99976 16.0889L1.69976 10.4999L3.03076 9.59994L9.71776 14.0999C9.80024 14.1554 9.89737 14.185 9.99676 14.185C10.0961 14.185 10.1933 14.1554 10.2758 14.0999L16.9628 9.59994L18.2998 10.4999L9.99976 16.0889Z" fill="#2C85C3"/>
</svg>
