<svg width="20" height="19" viewBox="0 0 20 19" fill="none" xmlns="http://www.w3.org/2000/svg">
<path d="M19.3419 16.5282C14.7442 18.0605 12.3077 17.4447 9.72861 16.7932C7.29116 16.1775 4.77016 15.5428 0.391765 16.5139C0.262266 16.5427 0.149492 16.6217 0.0782518 16.7336C0.00701139 16.8455 -0.0168596 16.9811 0.0118899 17.1106C0.0406393 17.2401 0.119654 17.3529 0.231553 17.4241C0.343451 17.4954 0.479066 17.5192 0.608565 17.4905C4.75746 16.5681 7.15981 17.1755 9.48356 17.763C10.9946 18.2085 12.5576 18.4537 14.1325 18.4924C16.0175 18.4574 17.8841 18.1142 19.6583 17.4765C19.7807 17.432 19.881 17.3414 19.9376 17.2241C19.9943 17.1068 20.0029 16.9719 19.9617 16.8483C19.9205 16.7247 19.8326 16.6221 19.7168 16.5623C19.6011 16.5026 19.4665 16.4903 19.3419 16.5282Z" fill="#2C85C3"/>
<path d="M0.608665 14.4906C4.75756 13.5692 7.15991 14.1756 9.48366 14.7631C10.9947 15.2086 12.5577 15.4539 14.1326 15.4926C16.0176 15.4575 17.8842 15.1142 19.6584 14.4765C19.7809 14.432 19.8811 14.3414 19.9378 14.2241C19.9944 14.1067 20.0031 13.9719 19.9618 13.8483C19.9206 13.7247 19.8327 13.6221 19.717 13.5623C19.6012 13.5025 19.4667 13.4903 19.342 13.5282C17.6281 14.1452 15.8217 14.4656 14.0002 14.4756V2.50244C14.0002 2.23722 14.1055 1.98287 14.2931 1.79533C14.4806 1.6078 14.7349 1.50244 15.0002 1.50244C15.2654 1.50244 15.5197 1.6078 15.7073 1.79533C15.8948 1.98287 16.0002 2.23722 16.0002 2.50244C16.0002 2.63505 16.0528 2.76223 16.1466 2.85599C16.2404 2.94976 16.3676 3.00244 16.5002 3.00244C16.6328 3.00244 16.7599 2.94976 16.8537 2.85599C16.9475 2.76223 17.0002 2.63505 17.0002 2.50244C17.0002 1.97201 16.7894 1.4633 16.4144 1.08823C16.0393 0.713155 15.5306 0.502441 15.0002 0.502441C14.4697 0.502441 13.961 0.713155 13.5859 1.08823C13.2109 1.4633 13.0002 1.97201 13.0002 2.50244V4.50244H6.00016V2.50244C6.00016 2.23722 6.10552 1.98287 6.29306 1.79533C6.48059 1.6078 6.73495 1.50244 7.00016 1.50244C7.26538 1.50244 7.51973 1.6078 7.70727 1.79533C7.89481 1.98287 8.00016 2.23722 8.00016 2.50244C8.00016 2.63505 8.05284 2.76223 8.14661 2.85599C8.24038 2.94976 8.36756 3.00244 8.50016 3.00244C8.63277 3.00244 8.75995 2.94976 8.85372 2.85599C8.94749 2.76223 9.00016 2.63505 9.00016 2.50244C9.00016 1.97201 8.78945 1.4633 8.41438 1.08823C8.0393 0.713155 7.5306 0.502441 7.00016 0.502441C6.46973 0.502441 5.96102 0.713155 5.58595 1.08823C5.21088 1.4633 5.00016 1.97201 5.00016 2.50244V13.0274C3.44979 12.9977 1.90175 13.1611 0.391765 13.5139C0.262266 13.5427 0.149492 13.6217 0.078252 13.7336C0.00701158 13.8455 -0.0168596 13.9811 0.0118898 14.1106C0.0406393 14.2401 0.119654 14.3529 0.231553 14.4241C0.343451 14.4954 0.479066 14.5192 0.608565 14.4905L0.608665 14.4906ZM6.00016 8.50239H13.0002V10.5024H6.00016V8.50239ZM13.0002 5.50239V7.50239H6.00016V5.50239H13.0002ZM6.00016 11.5024H13.0002V14.4224C11.8947 14.2995 10.8008 14.0891 9.72866 13.7932C8.50713 13.4556 7.2602 13.2179 6.00016 13.0822V11.5024Z" fill="#2C85C3"/>
</svg>
