<svg width="40" height="38" viewBox="0 0 40 38" fill="none" xmlns="http://www.w3.org/2000/svg">
<path d="M38.894 19.552L36.894 15.552C36.8109 15.3861 36.6832 15.2466 36.5253 15.1491C36.3674 15.0516 36.1855 15 36 15H31V10.616L34.418 8.892C34.5409 8.83644 34.6514 8.75658 34.7427 8.65721C34.834 8.55785 34.9042 8.44103 34.9491 8.31381C34.9941 8.18659 35.0128 8.05158 35.0042 7.91693C34.9956 7.78227 34.9598 7.65075 34.8991 7.53029C34.8383 7.40982 34.7538 7.3029 34.6506 7.21596C34.5474 7.12902 34.4277 7.06386 34.2986 7.02441C34.1696 6.98495 34.0339 6.97202 33.8998 6.98639C33.7656 7.00075 33.6357 7.04212 33.518 7.108L29.55 9.108C29.3848 9.19125 29.2459 9.31871 29.1488 9.47619C29.0517 9.63366 29.0002 9.81499 29 10V15H25.388L25 9.922C24.9803 9.67053 24.8663 9.43578 24.6809 9.2648C24.4954 9.09381 24.2522 8.99923 24 9H19V6C19 4.67392 18.4732 3.40215 17.5355 2.46447C16.5978 1.52678 15.3261 1 14 1C12.6739 1 11.4021 1.52678 10.4645 2.46447C9.52677 3.40215 8.99999 4.67392 8.99999 6V9H3.99999C3.74775 8.99923 3.50453 9.09381 3.31909 9.2648C3.13364 9.43578 3.01966 9.67053 2.99999 9.922L0.999987 35.922C0.990088 36.0597 1.0084 36.1979 1.05379 36.3282C1.09919 36.4586 1.17071 36.5783 1.26399 36.68C1.35791 36.7813 1.4718 36.862 1.59848 36.9171C1.72515 36.9721 1.86186 37.0004 1.99999 37H34C34.2451 37.0019 34.4823 36.9137 34.6666 36.7522C34.851 36.5907 34.9696 36.3672 35 36.124L36.882 21H38C38.1705 21 38.3382 20.9564 38.4871 20.8733C38.6361 20.7902 38.7613 20.6704 38.8508 20.5253C38.9404 20.3802 38.9914 20.2146 38.999 20.0443C39.0065 19.8739 38.9704 19.7045 38.894 19.552ZM36.382 19H23.618L24.618 17H35.382L36.382 19ZM33.618 31H26.382L25.882 27H34.118L33.618 31ZM11 6C11 5.20435 11.3161 4.44129 11.8787 3.87868C12.4413 3.31607 13.2043 3 14 3C14.7956 3 15.5587 3.31607 16.1213 3.87868C16.6839 4.44129 17 5.20435 17 6V9H11V6ZM4.92599 11H8.99999V14C8.99999 14.2652 9.10534 14.5196 9.29288 14.7071C9.48042 14.8946 9.73477 15 9.99999 15C10.2652 15 10.5196 14.8946 10.7071 14.7071C10.8946 14.5196 11 14.2652 11 14V11H17V14C17 14.2652 17.1053 14.5196 17.2929 14.7071C17.4804 14.8946 17.7348 15 18 15C18.2652 15 18.5196 14.8946 18.7071 14.7071C18.8946 14.5196 19 14.2652 19 14V11H23.074L23.4 15.23C23.2795 15.3144 23.1791 15.4243 23.106 15.552L21.106 19.552C21.0296 19.7045 20.9935 19.8739 21.001 20.0443C21.0086 20.2146 21.0595 20.3802 21.1491 20.5253C21.2387 20.6704 21.3639 20.7902 21.5128 20.8733C21.6618 20.9564 21.8295 21 22 21H23.118L24.868 35H3.07999L4.92599 11ZM26.882 35L26.632 33H33.368L33.118 35H26.882ZM34.368 25H25.632L25.132 21H34.868L34.368 25Z" fill="#35ABDF" stroke="#35ABDF" stroke-width="0.5"/>
<path d="M18 21H10C9.73478 21 9.48043 21.1054 9.29289 21.2929C9.10536 21.4804 9 21.7348 9 22V26C9 26.2652 9.10536 26.5196 9.29289 26.7071C9.48043 26.8946 9.73478 27 10 27H18C18.2652 27 18.5196 26.8946 18.7071 26.7071C18.8946 26.5196 19 26.2652 19 26V22C19 21.7348 18.8946 21.4804 18.7071 21.2929C18.5196 21.1054 18.2652 21 18 21ZM17 25H11V23H17V25Z" fill="#35ABDF" stroke="#35ABDF" stroke-width="0.5"/>
</svg>
