<svg width="29" height="36" viewBox="0 0 29 36" fill="none" xmlns="http://www.w3.org/2000/svg">
<path d="M14.3997 24C13.6877 24 12.9917 24.2111 12.3997 24.6067C11.8077 25.0023 11.3463 25.5645 11.0738 26.2223C10.8013 26.8802 10.73 27.604 10.8689 28.3023C11.0078 29.0007 11.3507 29.6421 11.8542 30.1456C12.3576 30.6491 12.9991 30.9919 13.6974 31.1308C14.3958 31.2697 15.1196 31.1984 15.7774 30.926C16.4352 30.6535 16.9975 30.1921 17.393 29.6001C17.7886 29.008 17.9997 28.312 17.9997 27.6C17.9997 26.6452 17.6205 25.7295 16.9453 25.0544C16.2702 24.3793 15.3545 24 14.3997 24ZM14.3997 28.8C14.1624 28.8 13.9304 28.7296 13.7331 28.5978C13.5357 28.4659 13.3819 28.2785 13.2911 28.0592C13.2003 27.8399 13.1765 27.5987 13.2228 27.3659C13.2691 27.1331 13.3834 26.9193 13.5512 26.7515C13.719 26.5836 13.9329 26.4694 14.1656 26.4231C14.3984 26.3768 14.6397 26.4005 14.859 26.4913C15.0782 26.5822 15.2657 26.736 15.3975 26.9333C15.5294 27.1307 15.5997 27.3627 15.5997 27.6C15.5997 27.9183 15.4733 28.2235 15.2483 28.4485C15.0232 28.6736 14.718 28.8 14.3997 28.8Z" fill="#35ABDF"/>
<path d="M14.3997 14.3999C13.6877 14.3999 12.9917 14.611 12.3997 15.0066C11.8077 15.4022 11.3463 15.9644 11.0738 16.6222C10.8013 17.2801 10.73 18.0039 10.8689 18.7022C11.0078 19.4006 11.3507 20.042 11.8542 20.5455C12.3576 21.049 12.9991 21.3918 13.6974 21.5307C14.3958 21.6696 15.1196 21.5983 15.7774 21.3259C16.4352 21.0534 16.9975 20.592 17.393 20C17.7886 19.4079 17.9997 18.7119 17.9997 17.9999C17.9997 17.0451 17.6205 16.1294 16.9453 15.4543C16.2702 14.7792 15.3545 14.3999 14.3997 14.3999ZM14.3997 19.1999C14.1624 19.1999 13.9304 19.1295 13.7331 18.9977C13.5357 18.8658 13.3819 18.6784 13.2911 18.4591C13.2003 18.2399 13.1765 17.9986 13.2228 17.7658C13.2691 17.533 13.3834 17.3192 13.5512 17.1514C13.719 16.9836 13.9329 16.8693 14.1656 16.823C14.3984 16.7767 14.6397 16.8004 14.859 16.8912C15.0782 16.9821 15.2657 17.1359 15.3975 17.3332C15.5294 17.5306 15.5997 17.7626 15.5997 17.9999C15.5997 18.3182 15.4733 18.6234 15.2483 18.8484C15.0232 19.0735 14.718 19.1999 14.3997 19.1999Z" fill="#35ABDF"/>
<path d="M14.3997 4.80005C13.6877 4.80005 12.9917 5.01119 12.3997 5.40676C11.8077 5.80233 11.3463 6.36457 11.0738 7.02239C10.8013 7.6802 10.73 8.40404 10.8689 9.10237C11.0078 9.80071 11.3507 10.4422 11.8542 10.9456C12.3576 11.4491 12.9991 11.792 13.6974 11.9309C14.3958 12.0698 15.1196 11.9985 15.7774 11.726C16.4352 11.4535 16.9975 10.9921 17.393 10.4001C17.7886 9.80808 17.9997 9.11206 17.9997 8.40005C17.9997 7.44527 17.6205 6.5296 16.9453 5.85446C16.2702 5.17933 15.3545 4.80005 14.3997 4.80005ZM14.3997 9.60005C14.1624 9.60005 13.9304 9.52967 13.7331 9.39781C13.5357 9.26595 13.3819 9.07854 13.2911 8.85927C13.2003 8.64 13.1765 8.39872 13.2228 8.16594C13.2691 7.93316 13.3834 7.71934 13.5512 7.55152C13.719 7.3837 13.9329 7.26941 14.1656 7.22311C14.3984 7.1768 14.6397 7.20057 14.859 7.29139C15.0782 7.38222 15.2657 7.53603 15.3975 7.73336C15.5294 7.9307 15.5997 8.16271 15.5997 8.40005C15.5997 8.71831 15.4733 9.02353 15.2483 9.24858C15.0232 9.47362 14.718 9.60005 14.3997 9.60005Z" fill="#35ABDF"/>
<path d="M28.4481 16.4484C28.6159 16.2806 28.7302 16.0668 28.7764 15.834C28.8227 15.6013 28.799 15.3601 28.7082 15.1408C28.6174 14.9216 28.4636 14.7342 28.2663 14.6023C28.069 14.4705 27.837 14.4001 27.5997 14.4H22.7997V12.4968L28.4481 6.8484C28.6159 6.68058 28.7302 6.46678 28.7764 6.23404C28.8227 6.00129 28.799 5.76005 28.7082 5.54081C28.6174 5.32157 28.4636 5.13418 28.2663 5.00232C28.069 4.87046 27.837 4.80005 27.5997 4.8H22.7997V1.2C22.7997 0.88174 22.6733 0.576516 22.4483 0.351472C22.2232 0.126428 21.918 0 21.5997 0L7.19974 0C6.88148 0 6.57626 0.126428 6.35122 0.351472C6.12617 0.576516 5.99974 0.88174 5.99974 1.2V4.8H1.19974C0.962444 4.80005 0.730486 4.87046 0.533194 5.00232C0.335902 5.13418 0.182135 5.32157 0.0913307 5.54081C0.000526688 5.76005 -0.0232369 6.00129 0.0230442 6.23404C0.0693253 6.46678 0.183573 6.68058 0.351344 6.8484L5.99974 12.4968V14.4H1.19974C0.962444 14.4001 0.730486 14.4705 0.533194 14.6023C0.335902 14.7342 0.182135 14.9216 0.0913307 15.1408C0.000526688 15.3601 -0.0232369 15.6013 0.0230442 15.834C0.0693253 16.0668 0.183573 16.2806 0.351344 16.4484L5.99974 22.0968V24H1.19974C0.962444 24.0001 0.730486 24.0705 0.533194 24.2023C0.335902 24.3342 0.182135 24.5216 0.0913307 24.7408C0.000526688 24.9601 -0.0232369 25.2013 0.0230442 25.434C0.0693253 25.6668 0.183573 25.8806 0.351344 26.0484L5.99974 31.6968V34.8C5.99974 35.1183 6.12617 35.4235 6.35122 35.6485C6.57626 35.8736 6.88148 36 7.19974 36H21.5997C21.918 36 22.2232 35.8736 22.4483 35.6485C22.6733 35.4235 22.7997 35.1183 22.7997 34.8V31.6968L28.4481 26.0484C28.6159 25.8806 28.7302 25.6668 28.7764 25.434C28.8227 25.2013 28.799 24.9601 28.7082 24.7408C28.6174 24.5216 28.4636 24.3342 28.2663 24.2023C28.069 24.0705 27.837 24.0001 27.5997 24H22.7997V22.0968L28.4481 16.4484ZM24.7029 16.8L22.7997 18.7032V16.8H24.7029ZM24.7029 7.2L22.7997 9.1032V7.2H24.7029ZM4.09654 7.2H5.99974V9.1032L4.09654 7.2ZM4.09654 16.8H5.99974V18.7032L4.09654 16.8ZM4.09654 26.4H5.99974V28.3032L4.09654 26.4ZM20.3997 33.6H8.39974V2.4H20.3997V33.6ZM24.7029 26.4L22.7997 28.3032V26.4H24.7029Z" fill="#35ABDF"/>
</svg>
