<svg width="38" height="35" viewBox="0 0 38 35" fill="none" xmlns="http://www.w3.org/2000/svg">
<path d="M33.5627 5.50882C33.5198 5.45261 33.4724 5.40004 33.4208 5.35166C33.3004 5.22491 33.1939 5.08676 33.0684 4.96128C32.9189 4.81045 32.7541 4.68116 32.5995 4.53794C32.5603 4.49587 32.5179 4.45688 32.4727 4.42133C29.2295 1.47629 24.9759 -0.105302 20.5965 0.00544723C15.8424 0.118195 11.3178 2.07218 7.97622 5.45559C7.73861 5.69328 7.60512 6.01561 7.60512 6.3517C7.60512 6.68778 7.73861 7.01011 7.97622 7.2478L18.4849 17.7501L4.54263 31.6923H1.26748C0.93132 31.6923 0.608933 31.8259 0.371235 32.0636C0.133537 32.3013 0 32.6236 0 32.9598C0 33.296 0.133537 33.6183 0.371235 33.856C0.608933 34.0937 0.93132 34.2273 1.26748 34.2273H29.1519C29.4881 34.2273 29.8105 34.0937 30.0482 33.856C30.2859 33.6183 30.4194 33.296 30.4194 32.9598C30.4194 32.6236 30.2859 32.3013 30.0482 32.0636C29.8105 31.8259 29.4881 31.6923 29.1519 31.6923H8.12959L20.2796 19.5436L30.7895 30.0522C31.0272 30.2898 31.3495 30.4233 31.6856 30.4233C32.0217 30.4233 32.344 30.2898 32.5817 30.0522C35.8679 26.8711 37.8031 22.5469 37.9858 17.9769C38.1685 13.4069 36.5845 8.94204 33.5627 5.50882ZM25.2988 20.9809L21.1858 16.8629L21.1757 16.8477L21.1605 16.8388L16.9778 12.6561C18.8024 10.7346 21.003 9.20935 23.4426 8.17532C25.8823 7.14128 28.5087 6.62061 31.1583 6.64575C31.1964 6.68377 31.2382 6.71546 31.2762 6.75348C31.2914 6.76743 31.3028 6.7839 31.3168 6.79785C31.3292 9.59212 30.7477 12.3571 29.6108 14.9097C28.572 17.1888 27.1086 19.2493 25.2988 20.9809ZM20.6497 2.5404C23.2327 2.4746 25.7869 3.09522 28.0518 4.33894C23.1396 4.96933 18.5964 7.27854 15.192 10.8753L10.6988 6.38211C13.4678 3.98281 16.9868 2.62423 20.6497 2.5404ZM31.6476 27.3271L27.0847 22.7642C29.1123 20.8162 30.7529 18.502 31.9201 15.9439C32.7734 14.0126 33.3474 11.9697 33.6248 9.87654C35.1114 12.641 35.7185 15.7934 35.3652 18.9123C35.0119 22.0311 33.7149 24.9678 31.6476 27.3297V27.3271Z" fill="#35ABDF"/>
</svg>
