<svg width="19" height="20" viewBox="0 0 19 20" fill="none" xmlns="http://www.w3.org/2000/svg">
<path d="M14.5 4.5H0.5C0.367392 4.5 0.240215 4.55268 0.146447 4.64645C0.0526785 4.74021 0 4.86739 0 5V19C0 19.1326 0.0526785 19.2598 0.146447 19.3536C0.240215 19.4473 0.367392 19.5 0.5 19.5H14.5C14.6326 19.5 14.7598 19.4473 14.8536 19.3536C14.9473 19.2598 15 19.1326 15 19V5C15 4.86739 14.9473 4.74021 14.8536 4.64645C14.7598 4.55268 14.6326 4.5 14.5 4.5ZM14 18.5H1V5.5H14V18.5Z" fill="#2C85C3"/>
<path d="M14.5 0.5C14.3674 0.5 14.2402 0.552679 14.1464 0.646447C14.0527 0.740215 14 0.867392 14 1V1.527H1V1C1 0.867392 0.947321 0.740215 0.853553 0.646447C0.759785 0.552679 0.632608 0.5 0.5 0.5C0.367392 0.5 0.240215 0.552679 0.146447 0.646447C0.0526785 0.740215 0 0.867392 0 1V3C0 3.13261 0.0526785 3.25979 0.146447 3.35355C0.240215 3.44732 0.367392 3.5 0.5 3.5C0.632608 3.5 0.759785 3.44732 0.853553 3.35355C0.947321 3.25979 1 3.13261 1 3V2.527H14V3C14 3.13261 14.0527 3.25979 14.1464 3.35355C14.2402 3.44732 14.3674 3.5 14.5 3.5C14.6326 3.5 14.7598 3.44732 14.8536 3.35355C14.9473 3.25979 15 3.13261 15 3V1C15 0.867392 14.9473 0.740215 14.8536 0.646447C14.7598 0.552679 14.6326 0.5 14.5 0.5Z" fill="#2C85C3"/>
<path d="M18.5 18.5H17.973V5.5H18.5C18.6326 5.5 18.7598 5.44732 18.8536 5.35355C18.9473 5.25979 19 5.13261 19 5C19 4.86739 18.9473 4.74021 18.8536 4.64645C18.7598 4.55268 18.6326 4.5 18.5 4.5H16.5C16.3674 4.5 16.2402 4.55268 16.1464 4.64645C16.0527 4.74021 16 4.86739 16 5C16 5.13261 16.0527 5.25979 16.1464 5.35355C16.2402 5.44732 16.3674 5.5 16.5 5.5H16.973V18.5H16.5C16.3674 18.5 16.2402 18.5527 16.1464 18.6464C16.0527 18.7402 16 18.8674 16 19C16 19.1326 16.0527 19.2598 16.1464 19.3536C16.2402 19.4473 16.3674 19.5 16.5 19.5H18.5C18.6326 19.5 18.7598 19.4473 18.8536 19.3536C18.9473 19.2598 19 19.1326 19 19C19 18.8674 18.9473 18.7402 18.8536 18.6464C18.7598 18.5527 18.6326 18.5 18.5 18.5Z" fill="#2C85C3"/>
</svg>
