<svg width="20" height="19" viewBox="0 0 20 19" fill="none" xmlns="http://www.w3.org/2000/svg">
<path d="M19.3418 16.5282C14.7442 18.0605 12.3077 17.4447 9.72855 16.7932C7.2911 16.1775 4.7701 15.5428 0.391704 16.5139C0.262205 16.5427 0.149431 16.6217 0.0781907 16.7336C0.00695036 16.8455 -0.0169206 16.9811 0.0118288 17.1106C0.0405783 17.2401 0.119593 17.3529 0.231491 17.4241C0.34339 17.4954 0.479005 17.5192 0.608504 17.4905C4.7574 16.5681 7.15975 17.1755 9.4835 17.763C10.9945 18.2085 12.5575 18.4537 14.1324 18.4924C16.0174 18.4574 17.884 18.1142 19.6582 17.4765C19.7807 17.432 19.8809 17.3414 19.9376 17.2241C19.9942 17.1068 20.0029 16.9719 19.9616 16.8483C19.9204 16.7247 19.8325 16.6221 19.7168 16.5623C19.601 16.5026 19.4665 16.4903 19.3418 16.5282Z" fill="#2C85C3"/>
<path d="M0.608512 14.4906C4.75741 13.5692 7.15976 14.1756 9.48351 14.7631C10.9946 15.2086 12.5575 15.4539 14.1324 15.4926C16.0174 15.4575 17.884 15.1142 19.6583 14.4765C19.7807 14.432 19.8809 14.3414 19.9376 14.2241C19.9943 14.1067 20.0029 13.9719 19.9617 13.8483C19.9204 13.7247 19.8326 13.6221 19.7168 13.5623C19.601 13.5025 19.4665 13.4903 19.3419 13.5282C17.628 14.1452 15.8215 14.4656 14 14.4756V2.50244C14 2.23722 14.1054 1.98287 14.2929 1.79533C14.4804 1.6078 14.7348 1.50244 15 1.50244C15.2652 1.50244 15.5196 1.6078 15.7071 1.79533C15.8947 1.98287 16 2.23722 16 2.50244C16 2.63505 16.0527 2.76223 16.1465 2.85599C16.2402 2.94976 16.3674 3.00244 16.5 3.00244C16.6326 3.00244 16.7598 2.94976 16.8536 2.85599C16.9473 2.76223 17 2.63505 17 2.50244C17 1.97201 16.7893 1.4633 16.4142 1.08823C16.0392 0.713155 15.5304 0.502441 15 0.502441C14.4696 0.502441 13.9609 0.713155 13.5858 1.08823C13.2107 1.4633 13 1.97201 13 2.50244V4.50244H6.00001V2.50244C6.00001 2.23722 6.10537 1.98287 6.2929 1.79533C6.48044 1.6078 6.7348 1.50244 7.00001 1.50244C7.26523 1.50244 7.51958 1.6078 7.70712 1.79533C7.89465 1.98287 8.00001 2.23722 8.00001 2.50244C8.00001 2.63505 8.05269 2.76223 8.14646 2.85599C8.24023 2.94976 8.3674 3.00244 8.50001 3.00244C8.63262 3.00244 8.7598 2.94976 8.85357 2.85599C8.94733 2.76223 9.00001 2.63505 9.00001 2.50244C9.00001 1.97201 8.7893 1.4633 8.41422 1.08823C8.03915 0.713155 7.53044 0.502441 7.00001 0.502441C6.46958 0.502441 5.96087 0.713155 5.5858 1.08823C5.21073 1.4633 5.00001 1.97201 5.00001 2.50244V13.0274C3.44964 12.9977 1.9016 13.1611 0.391612 13.5139C0.262114 13.5427 0.14934 13.6217 0.0780994 13.7336C0.006859 13.8455 -0.0170122 13.9811 0.0117372 14.1106C0.0404867 14.2401 0.119502 14.3529 0.2314 14.4241C0.343298 14.4954 0.478914 14.5192 0.608412 14.4905L0.608512 14.4906ZM6.00001 8.50239H13V10.5024H6.00001V8.50239ZM13 5.50239V7.50239H6.00001V5.50239H13ZM6.00001 11.5024H13V14.4224C11.8946 14.2995 10.8007 14.0891 9.72851 13.7932C8.50698 13.4556 7.26004 13.2179 6.00001 13.0822V11.5024Z" fill="#2C85C3"/>
</svg>
