<svg width="24" height="25" viewBox="0 0 24 25" fill="none" xmlns="http://www.w3.org/2000/svg">
<path d="M19.089 5.45499C19.082 5.44699 19.079 5.43699 19.071 5.42899C19.063 5.42099 19.053 5.41899 19.045 5.41199C17.1679 3.55197 14.6305 2.51111 11.9879 2.51712C9.34533 2.52312 6.81268 3.57549 4.94403 5.44401C3.07537 7.31254 2.02282 9.84511 2.01663 12.4877C2.01044 15.1303 3.05112 17.6677 4.91101 19.545C4.91801 19.553 4.92101 19.563 4.92901 19.571C4.93701 19.579 4.94701 19.581 4.95501 19.588C6.83213 21.448 9.36953 22.4889 12.0121 22.4829C14.6547 22.4769 17.1873 21.4245 19.056 19.556C20.9247 17.6874 21.9772 15.1549 21.9834 12.5123C21.9896 9.86972 20.9489 7.33225 19.089 5.45499ZM12 3.49999C14.2126 3.49984 16.3469 4.31921 17.991 5.79999L12.291 11.5H8.14601C8.37305 11.2139 8.65488 10.9759 8.97501 10.8C9.41567 10.5744 9.8835 10.4063 10.367 10.3C10.535 10.256 10.702 10.211 10.867 10.163C11.6711 9.98063 12.3918 9.53637 12.916 8.89999C13.162 8.51491 13.3189 8.07978 13.3753 7.62634C13.4317 7.17291 13.3861 6.7126 13.242 6.27899L13.188 5.97899C13.1769 5.91425 13.1532 5.85233 13.1181 5.79676C13.0831 5.7412 13.0375 5.69307 12.9839 5.65514C12.9302 5.61721 12.8697 5.59021 12.8056 5.57569C12.7415 5.56116 12.6753 5.5594 12.6105 5.57049C12.4798 5.59291 12.3633 5.66634 12.2867 5.77464C12.2487 5.82827 12.2217 5.88884 12.2072 5.9529C12.1927 6.01696 12.1909 6.08325 12.202 6.14799L12.259 6.46099C12.415 7.31999 12.479 7.79299 12.102 8.32199C11.71 8.77766 11.1766 9.08888 10.587 9.206C10.43 9.253 10.271 9.29499 10.111 9.33699C9.54205 9.46333 8.99252 9.66511 8.47701 9.937C7.81579 10.2512 7.30441 10.8125 7.05301 11.5H6.01301C5.98191 11.0674 6.07656 10.635 6.28557 10.255C6.49458 9.87492 6.80902 9.56342 7.19101 9.35799C7.48879 9.21953 7.80012 9.11229 8.12001 9.03799C8.5514 8.94016 8.968 8.78583 9.35901 8.579C9.63031 8.44055 9.85697 8.22825 10.0128 7.96657C10.1687 7.70489 10.2475 7.40449 10.24 7.09999C10.268 6.72302 10.2455 6.344 10.173 5.97299C10.1625 5.90759 10.1391 5.84492 10.1042 5.78863C10.0693 5.73233 10.0235 5.68354 9.96961 5.64508C9.91567 5.60662 9.85463 5.57927 9.79003 5.5646C9.72544 5.54993 9.65857 5.54825 9.59331 5.55964C9.52806 5.57103 9.46572 5.59528 9.40991 5.63098C9.35411 5.66667 9.30595 5.71309 9.26824 5.76755C9.23053 5.82202 9.20402 5.88343 9.19025 5.94822C9.17647 6.01302 9.17571 6.0799 9.18801 6.14499C9.24466 6.43096 9.26348 6.72313 9.24401 7.01399C9.20601 7.46099 9.16801 7.52699 8.84401 7.72199C8.52964 7.87936 8.19716 7.99757 7.85401 8.07399C7.45823 8.16703 7.07416 8.30423 6.70901 8.48299C6.1065 8.8326 5.62201 9.35404 5.31756 9.98058C5.01311 10.6071 4.90254 11.3103 5.00001 12V15C5.00001 15.1326 5.05269 15.2598 5.14646 15.3535C5.24022 15.4473 5.3674 15.5 5.50001 15.5H8.29301L5.30001 18.49C4.1387 17.1975 3.3771 15.5959 3.10743 13.8794C2.83777 12.1628 3.07162 10.4049 3.78067 8.81857C4.48971 7.23222 5.64352 5.88549 7.10234 4.94152C8.56117 3.99754 10.2624 3.49682 12 3.49999ZM18 12.5V14.5H16V12.5H18ZM15 14.5H10.707L12.707 12.5H15V14.5ZM9.29301 14.5H8.00001V12.5H11.295L9.29301 14.5ZM6.00001 14.5V12.5H7.00001V14.5H6.00001ZM12 21.5C9.78738 21.5001 7.6531 20.6808 6.00901 19.2L9.70901 15.5H18.5C18.6326 15.5 18.7598 15.4473 18.8536 15.3535C18.9473 15.2598 19 15.1326 19 15V12C19 11.8674 18.9473 11.7402 18.8536 11.6464C18.7598 11.5527 18.6326 11.5 18.5 11.5H13.707L18.7 6.50999C19.8613 7.80252 20.6229 9.40405 20.8926 11.1206C21.1622 12.8372 20.9284 14.5951 20.2194 16.1814C19.5103 17.7678 18.3565 19.1145 16.8977 20.0585C15.4389 21.0024 13.7376 21.5032 12 21.5Z" fill="#2C85C3"/>
</svg>
