<svg width="14" height="19" viewBox="0 0 14 19" fill="none" xmlns="http://www.w3.org/2000/svg">
<path d="M11.5 5C11.5 4.10999 11.2361 3.23996 10.7416 2.49994C10.2471 1.75991 9.54434 1.18314 8.72208 0.842544C7.89981 0.50195 6.99501 0.412835 6.1221 0.586468C5.24918 0.760102 4.44736 1.18868 3.81802 1.81802C3.18869 2.44736 2.7601 3.24918 2.58647 4.1221C2.41283 4.99501 2.50195 5.89981 2.84254 6.72208C3.18314 7.54434 3.75991 8.24715 4.49994 8.74162C5.23996 9.23608 6.10999 9.5 7 9.5C8.19307 9.49868 9.33689 9.02415 10.1805 8.18052C11.0241 7.33689 11.4987 6.19307 11.5 5ZM7 8.5C6.30777 8.5 5.63108 8.29473 5.05551 7.91015C4.47993 7.52556 4.03133 6.97894 3.76642 6.33939C3.50152 5.69985 3.4322 4.99612 3.56725 4.31719C3.7023 3.63825 4.03564 3.01461 4.52513 2.52513C5.01461 2.03564 5.63825 1.7023 6.31719 1.56725C6.99612 1.43221 7.69985 1.50152 8.33939 1.76642C8.97894 2.03133 9.52556 2.47993 9.91015 3.05551C10.2947 3.63108 10.5 4.30777 10.5 5C10.5 5.92826 10.1313 6.8185 9.47488 7.47488C8.8185 8.13125 7.92826 8.5 7 8.5Z" fill="#2C85C3"/>
<path d="M8.5 9.5H5.5C4.0418 9.50159 2.64377 10.0816 1.61267 11.1127C0.581561 12.1438 0.00158897 13.5418 7.97495e-07 15V16C-0.00011655 16.0657 0.0127175 16.1308 0.0377692 16.1915C0.0628209 16.2523 0.0995989 16.3075 0.146001 16.354C0.234001 16.441 2.346 18.5 7 18.5C12.646 18.5 13.831 16.457 13.947 16.224C13.9818 16.1545 14 16.0778 14 16V15C13.9984 13.5418 13.4184 12.1438 12.3873 11.1127C11.3562 10.0816 9.9582 9.50159 8.5 9.5ZM13 15.847C12.726 16.189 11.39 17.5 7 17.5C4.86301 17.6102 2.75068 17.0015 1 15.771V15C1.00132 13.8069 1.47586 12.6631 2.31948 11.8195C3.16311 10.9759 4.30693 10.5013 5.5 10.5H8.5C9.69307 10.5013 10.8369 10.9759 11.6805 11.8195C12.5241 12.6631 12.9987 13.8069 13 15V15.847Z" fill="#2C85C3"/>
</svg>
