<svg width="24" height="25" viewBox="0 0 24 25" fill="none" xmlns="http://www.w3.org/2000/svg">
<path d="M21 13.0001C21 12.6023 20.842 12.2207 20.5607 11.9394C20.2793 11.6581 19.8978 11.5001 19.5 11.5001H18V11.0001C18 10.8675 17.9473 10.7403 17.8535 10.6465C17.7598 10.5528 17.6326 10.5001 17.5 10.5001H13.5C13.3674 10.5001 13.2402 10.5528 13.1464 10.6465C13.0527 10.7403 13 10.8675 13 11.0001V11.5001H4.99999V5.8541C5.00014 5.54915 5.10322 5.25318 5.29254 5.01412C5.48187 4.77506 5.74635 4.60691 6.04316 4.5369C6.33996 4.46689 6.65171 4.49913 6.92791 4.62839C7.20411 4.75765 7.42859 4.97636 7.56499 5.2491L8.05299 6.2241C7.7291 6.45055 7.46437 6.75153 7.28111 7.10168C7.09786 7.45183 7.00144 7.8409 6.99999 8.2361V9.0001C7 9.08537 7.0218 9.16921 7.06334 9.24368C7.10488 9.31814 7.16477 9.38074 7.23732 9.42553C7.30987 9.47032 7.39267 9.49582 7.47785 9.4996C7.56303 9.50337 7.64776 9.4853 7.72399 9.4471L11.724 7.4471C11.8069 7.40553 11.8767 7.34171 11.9254 7.26277C11.9741 7.18382 12 7.09288 12 7.0001C12 6.90733 11.9741 6.81638 11.9254 6.73744C11.8767 6.6585 11.8069 6.59467 11.724 6.5531L10.618 6.0001C10.1029 5.74396 9.51515 5.67333 8.95399 5.8001C8.95399 5.7921 8.95399 5.7841 8.94699 5.7761L8.45999 4.8001C8.22294 4.32542 7.83248 3.94474 7.35194 3.71981C6.8714 3.49487 6.32896 3.43888 5.8126 3.56091C5.29624 3.68293 4.83625 3.97583 4.50724 4.39208C4.17822 4.80833 3.99948 5.32352 3.99999 5.8541V11.5001H3.49999C3.14918 11.5041 2.81086 11.6309 2.54387 11.8585C2.27688 12.0861 2.09811 12.4001 2.03866 12.7458C1.97921 13.0916 2.04284 13.4473 2.21848 13.751C2.39412 14.0547 2.67065 14.2872 2.99999 14.4081V17.0001C3.00224 17.6153 3.16704 18.219 3.47769 18.7501C3.78834 19.2811 4.23382 19.7206 4.76899 20.0241L4.14599 20.6461C4.05211 20.74 3.99936 20.8673 3.99936 21.0001C3.99936 21.1329 4.05211 21.2602 4.14599 21.3541C4.23988 21.448 4.36722 21.5007 4.49999 21.5007C4.63277 21.5007 4.76011 21.448 4.85399 21.3541L5.78199 20.4251C6.01815 20.4745 6.25873 20.4996 6.49999 20.5001H16.5C16.7413 20.4996 16.9818 20.4745 17.218 20.4251L18.146 21.3541C18.2399 21.448 18.3672 21.5007 18.5 21.5007C18.6328 21.5007 18.7601 21.448 18.854 21.3541C18.9479 21.2602 19.0006 21.1329 19.0006 21.0001C19.0006 20.8673 18.9479 20.74 18.854 20.6461L18.231 20.0241C18.7662 19.7206 19.2116 19.2811 19.5223 18.7501C19.833 18.219 19.9977 17.6153 20 17.0001V14.4081C20.2914 14.3051 20.5439 14.1145 20.7229 13.8625C20.902 13.6104 20.9987 13.3092 21 13.0001ZM10.171 6.9001L10.382 7.0051L7.99999 8.1901C8.00693 7.93794 8.07736 7.6916 8.20475 7.47386C8.33214 7.25613 8.51239 7.07405 8.72882 6.94445C8.94524 6.81486 9.19086 6.74193 9.44294 6.73243C9.69502 6.72293 9.94543 6.77716 10.171 6.8901V6.9001ZM14 15.5001H17V16.5001H14V15.5001ZM14 11.5001H17V14.5001H14V11.5001ZM3.49999 12.5001H13V13.5001H3.49999C3.36739 13.5001 3.24021 13.4474 3.14644 13.3537C3.05267 13.2599 2.99999 13.1327 2.99999 13.0001C2.99999 12.8675 3.05267 12.7403 3.14644 12.6466C3.24021 12.5528 3.36739 12.5001 3.49999 12.5001ZM19 17.0001C19 17.6631 18.7366 18.299 18.2678 18.7679C17.7989 19.2367 17.163 19.5001 16.5 19.5001H6.49999C5.83695 19.5001 5.20107 19.2367 4.73223 18.7679C4.26339 18.299 3.99999 17.6631 3.99999 17.0001V14.5001H13V17.0001C13 17.1327 13.0527 17.2599 13.1464 17.3537C13.2402 17.4474 13.3674 17.5001 13.5 17.5001H17.5C17.6326 17.5001 17.7598 17.4474 17.8535 17.3537C17.9473 17.2599 18 17.1327 18 17.0001V14.5001H19V17.0001ZM19.5 13.5001H18V12.5001H19.5C19.6326 12.5001 19.7598 12.5528 19.8535 12.6466C19.9473 12.7403 20 12.8675 20 13.0001C20 13.1327 19.9473 13.2599 19.8535 13.3537C19.7598 13.4474 19.6326 13.5001 19.5 13.5001Z" fill="#2C85C3"/>
</svg>
