<svg width="38" height="36" viewBox="0 0 38 36" fill="none" xmlns="http://www.w3.org/2000/svg">
<path d="M7.59045 25.9366C7.75113 26.1911 7.99718 26.3801 8.28454 26.4697C8.57189 26.5593 8.88176 26.5436 9.15862 26.4255L19.2022 22.1314L22.4614 30.147C22.5346 30.3276 22.6484 30.4889 22.7941 30.6183C22.9397 30.7477 23.1133 30.8417 23.3012 30.8931C23.4099 30.9222 23.5219 30.9371 23.6344 30.9375C23.9122 30.9376 24.1824 30.8463 24.4032 30.6778L28.4275 27.6137C28.5943 27.4861 28.7268 27.3191 28.8131 27.1276C28.8993 26.9361 28.9366 26.7262 28.9215 26.5167L28.33 18.2351L34.9852 15.3901C36.1904 14.8581 37.1403 13.8765 37.6324 12.6544C38.1245 11.4324 38.1201 10.0664 37.6199 8.84764C37.3752 8.2351 37.01 7.67794 36.5458 7.20925C36.0817 6.74055 35.5282 6.36987 34.918 6.11919C34.3242 5.87274 33.6869 5.748 33.0439 5.75235C32.401 5.7567 31.7654 5.89006 31.175 6.14453L25.2975 8.65891L18.3244 0.445685C18.1841 0.280851 18.0039 0.154719 17.801 0.0793236C17.5981 0.0039287 17.3793 -0.0182135 17.1654 0.0150099L12.205 0.783891C12.0163 0.813243 11.8366 0.884899 11.6795 0.993497C11.5223 1.1021 11.3918 1.24482 11.2976 1.411C11.2035 1.57718 11.1481 1.7625 11.1357 1.95311C11.1232 2.14371 11.1541 2.33466 11.2259 2.51166L15.4389 12.8757L12.7674 14.0157L7.64365 10.1435C7.46508 10.0079 7.25373 9.92219 7.03119 9.89504C6.80865 9.86789 6.58289 9.90029 6.37696 9.98893L0.768059 12.3893C0.599608 12.4614 0.448814 12.5693 0.326082 12.7053C0.203351 12.8414 0.111603 13.0025 0.0571721 13.1775C0.00274083 13.3524 -0.0130785 13.5371 0.0108059 13.7188C0.0346902 13.9005 0.0977095 14.0749 0.195515 14.2298L7.59045 25.9366ZM14.176 3.03987L16.8525 2.62566L22.8629 9.70139L17.7683 11.8788L14.176 3.03987ZM6.7025 12.6059L11.8263 16.4795C12.0048 16.615 12.2162 16.7007 12.4387 16.7279C12.6613 16.755 12.887 16.7226 13.093 16.634L32.1731 8.47397C32.4546 8.35302 32.7574 8.28969 33.0637 8.28773C33.37 8.28578 33.6737 8.34523 33.9566 8.46257C34.255 8.58589 34.5255 8.76798 34.752 8.998C34.9785 9.22801 35.1565 9.50126 35.2752 9.80146C35.5262 10.4047 35.5321 11.082 35.2915 11.6894C35.051 12.2969 34.583 12.7865 33.987 13.0543L28.1362 15.556L28.0754 14.7061C28.0515 14.3701 27.8952 14.0574 27.6408 13.8367C27.3864 13.6161 27.0547 13.5055 26.7187 13.5293C26.3828 13.5532 26.0701 13.7095 25.8494 13.9639C25.6287 14.2183 25.5181 14.55 25.542 14.886L26.3362 26.0088L24.1752 27.6555L20.1218 17.6752C19.9953 17.364 19.7504 17.1157 19.4409 16.985C19.1313 16.8544 18.7826 16.852 18.4713 16.9785C18.1601 17.105 17.9118 17.35 17.7812 17.6595C17.6505 17.969 17.6482 18.3178 17.7746 18.629L18.2433 19.7805L9.15608 23.6717L3.13044 14.1335L6.7025 12.6059Z" fill="#35ABDF"/>
<path d="M36.7334 32.9338H1.36355C1.02761 32.9338 0.705418 33.0673 0.467868 33.3048C0.230317 33.5424 0.0968628 33.8646 0.0968628 34.2005C0.0968628 34.5365 0.230317 34.8587 0.467868 35.0962C0.705418 35.3338 1.02761 35.4672 1.36355 35.4672H36.7334C37.0693 35.4672 37.3915 35.3338 37.629 35.0962C37.8666 34.8587 38 34.5365 38 34.2005C38 33.8646 37.8666 33.5424 37.629 33.3048C37.3915 33.0673 37.0693 32.9338 36.7334 32.9338Z" fill="#35ABDF"/>
</svg>
