<svg width="18" height="17" viewBox="0 0 18 17" fill="none" xmlns="http://www.w3.org/2000/svg">
<path d="M17.5 11.5H16.908C16.9672 11.3399 16.9983 11.1707 17 11V9C17 8.60218 16.842 8.22064 16.5607 7.93934C16.2794 7.65804 15.8978 7.5 15.5 7.5H15V2C15 1.60218 14.842 1.22064 14.5607 0.93934C14.2794 0.658035 13.8978 0.5 13.5 0.5H4.5C4.10218 0.5 3.72064 0.658035 3.43934 0.93934C3.15804 1.22064 3 1.60218 3 2V7.5H2.5C2.10218 7.5 1.72064 7.65804 1.43934 7.93934C1.15804 8.22064 1 8.60218 1 9V11C1.00166 11.1707 1.03278 11.3399 1.092 11.5H0.5C0.367392 11.5 0.240215 11.5527 0.146447 11.6464C0.0526785 11.7402 0 11.8674 0 12V14C0 14.1326 0.0526785 14.2598 0.146447 14.3536C0.240215 14.4473 0.367392 14.5 0.5 14.5H2V16.275C2 16.4076 2.05268 16.5348 2.14645 16.6286C2.24021 16.7223 2.36739 16.775 2.5 16.775C2.63261 16.775 2.75979 16.7223 2.85355 16.6286C2.94732 16.5348 3 16.4076 3 16.275V14.5H15V16.275C15 16.4076 15.0527 16.5348 15.1464 16.6286C15.2402 16.7223 15.3674 16.775 15.5 16.775C15.6326 16.775 15.7598 16.7223 15.8536 16.6286C15.9473 16.5348 16 16.4076 16 16.275V14.5H17.5C17.6326 14.5 17.7598 14.4473 17.8536 14.3536C17.9473 14.2598 18 14.1326 18 14V12C18 11.8674 17.9473 11.7402 17.8536 11.6464C17.7598 11.5527 17.6326 11.5 17.5 11.5V11.5ZM4 2C4 1.86739 4.05268 1.74021 4.14645 1.64645C4.24021 1.55268 4.36739 1.5 4.5 1.5H13.5C13.6326 1.5 13.7598 1.55268 13.8536 1.64645C13.9473 1.74021 14 1.86739 14 2V7.5H13V6C13 5.60218 12.842 5.22064 12.5607 4.93934C12.2794 4.65804 11.8978 4.5 11.5 4.5H6.5C6.10218 4.5 5.72064 4.65804 5.43934 4.93934C5.15804 5.22064 5 5.60218 5 6V7.5H4V2ZM12 7.5H6V6C6 5.86739 6.05268 5.74021 6.14645 5.64645C6.24021 5.55268 6.36739 5.5 6.5 5.5H11.5C11.6326 5.5 11.7598 5.55268 11.8536 5.64645C11.9473 5.74021 12 5.86739 12 6V7.5ZM2 11V9C2 8.86739 2.05268 8.74021 2.14645 8.64645C2.24021 8.55268 2.36739 8.5 2.5 8.5H15.5C15.6326 8.5 15.7598 8.55268 15.8536 8.64645C15.9473 8.74021 16 8.86739 16 9V11C16 11.1326 15.9473 11.2598 15.8536 11.3536C15.7598 11.4473 15.6326 11.5 15.5 11.5H2.5C2.36739 11.5 2.24021 11.4473 2.14645 11.3536C2.05268 11.2598 2 11.1326 2 11ZM17 13.5H1V12.5H17V13.5Z" fill="#2C85C3"/>
</svg>
